<svg width="281" height="50" viewBox="0 0 281 50" fill="none" xmlns="http://www.w3.org/2000/svg">
<mask id="path-1-outside-1_60_1969" maskUnits="userSpaceOnUse" x="0" y="0.0588226" width="281" height="50" fill="black">
<rect fill="white" y="0.0588226" width="281" height="50"/>
<path d="M7.578 37.4728C6.53533 37.4728 5.738 37.1815 5.186 36.5988C4.634 36.0162 4.358 35.2035 4.358 34.1608V7.52682C4.358 6.48415 4.64933 5.67149 5.232 5.08882C5.84533 4.50615 6.67333 4.21482 7.716 4.21482C8.636 4.21482 9.35667 4.39882 9.878 4.76682C10.43 5.10415 10.936 5.70215 11.396 6.56082L22.022 25.9728H20.458L31.084 6.56082C31.544 5.70215 32.0347 5.10415 32.556 4.76682C33.108 4.39882 33.8287 4.21482 34.718 4.21482C35.7607 4.21482 36.558 4.50615 37.11 5.08882C37.6927 5.67149 37.984 6.48415 37.984 7.52682V34.1608C37.984 35.2035 37.708 36.0162 37.156 36.5988C36.604 37.1815 35.8067 37.4728 34.764 37.4728C33.7213 37.4728 32.9087 37.1815 32.326 36.5988C31.774 36.0162 31.498 35.2035 31.498 34.1608V15.5308H32.51L23.954 30.8488C23.586 31.4315 23.1873 31.8762 22.758 32.1828C22.3593 32.4588 21.8227 32.5968 21.148 32.5968C20.4733 32.5968 19.9213 32.4435 19.492 32.1368C19.0627 31.8302 18.6793 31.4008 18.342 30.8488L9.694 15.4848H10.798V34.1608C10.798 35.2035 10.522 36.0162 9.97 36.5988C9.44867 37.1815 8.65133 37.4728 7.578 37.4728ZM54.7729 37.5648C52.1049 37.5648 49.8049 37.0895 47.8729 36.1388C45.9716 35.1575 44.4996 33.7928 43.4569 32.0448C42.4449 30.2662 41.9389 28.1808 41.9389 25.7888C41.9389 23.4582 42.4296 21.4188 43.4109 19.6708C44.3923 17.8922 45.7569 16.5122 47.5049 15.5308C49.2836 14.5188 51.2923 14.0128 53.5309 14.0128C55.1563 14.0128 56.6283 14.2888 57.9469 14.8408C59.2656 15.3622 60.4003 16.1288 61.3509 17.1408C62.3016 18.1222 63.0223 19.3335 63.5129 20.7748C64.0036 22.1855 64.2489 23.7648 64.2489 25.5128C64.2489 26.0955 64.0649 26.5402 63.6969 26.8468C63.3289 27.1228 62.7923 27.2608 62.0869 27.2608H47.6429V23.6728H59.2349L58.4989 24.3168C58.4989 23.0595 58.3149 22.0168 57.9469 21.1888C57.5789 20.3302 57.0423 19.6862 56.3369 19.2568C55.6623 18.8275 54.8189 18.6128 53.8069 18.6128C52.6723 18.6128 51.7063 18.8735 50.9089 19.3948C50.1116 19.9162 49.4983 20.6675 49.0689 21.6488C48.6396 22.6302 48.4249 23.8108 48.4249 25.1908V25.5588C48.4249 27.8895 48.9616 29.6068 50.0349 30.7108C51.1389 31.8148 52.7643 32.3668 54.9109 32.3668C55.6469 32.3668 56.4903 32.2748 57.4409 32.0908C58.3916 31.9068 59.2809 31.6155 60.1089 31.2168C60.8143 30.8795 61.4429 30.7722 61.9949 30.8948C62.5469 30.9868 62.9763 31.2322 63.2829 31.6308C63.5896 32.0295 63.7583 32.4895 63.7889 33.0108C63.8503 33.5322 63.7429 34.0535 63.4669 34.5748C63.1909 35.0655 62.7309 35.4795 62.0869 35.8168C61.0443 36.3995 59.8636 36.8288 58.5449 37.1048C57.2569 37.4115 55.9996 37.5648 54.7729 37.5648ZM70.957 37.4728C69.7917 37.4728 68.9023 37.1662 68.289 36.5528C67.6757 35.9395 67.369 35.0655 67.369 33.9308V17.6008C67.369 16.4662 67.6603 15.6075 68.243 15.0248C68.8563 14.4115 69.6997 14.1048 70.773 14.1048C71.877 14.1048 72.7203 14.4115 73.303 15.0248C73.8857 15.6075 74.177 16.4662 74.177 17.6008V19.9928H73.717C74.085 18.1528 74.8977 16.7268 76.155 15.7148C77.4123 14.7028 79.0377 14.1355 81.031 14.0128C81.7977 13.9515 82.3803 14.1508 82.779 14.6108C83.2083 15.0402 83.4383 15.7608 83.469 16.7728C83.5303 17.7235 83.331 18.4748 82.871 19.0268C82.4417 19.5788 81.7057 19.9162 80.663 20.0388L79.605 20.1308C77.857 20.2842 76.5537 20.7902 75.695 21.6488C74.867 22.5075 74.453 23.7495 74.453 25.3748V33.9308C74.453 35.0655 74.1463 35.9395 73.533 36.5528C72.9503 37.1662 72.0917 37.4728 70.957 37.4728ZM88.994 37.4728C87.8287 37.4728 86.9394 37.1662 86.326 36.5528C85.7127 35.9395 85.406 35.0655 85.406 33.9308V17.6008C85.406 16.4662 85.6974 15.6075 86.28 15.0248C86.8934 14.4115 87.7367 14.1048 88.81 14.1048C89.914 14.1048 90.7574 14.4115 91.34 15.0248C91.9227 15.6075 92.214 16.4662 92.214 17.6008V19.9928H91.754C92.122 18.1528 92.9347 16.7268 94.192 15.7148C95.4494 14.7028 97.0747 14.1355 99.068 14.0128C99.8347 13.9515 100.417 14.1508 100.816 14.6108C101.245 15.0402 101.475 15.7608 101.506 16.7728C101.567 17.7235 101.368 18.4748 100.908 19.0268C100.479 19.5788 99.7427 19.9162 98.7 20.0388L97.642 20.1308C95.894 20.2842 94.5907 20.7902 93.732 21.6488C92.904 22.5075 92.49 23.7495 92.49 25.3748V33.9308C92.49 35.0655 92.1834 35.9395 91.57 36.5528C90.9874 37.1662 90.1287 37.4728 88.994 37.4728ZM111 45.7528C110.202 45.7528 109.543 45.5382 109.022 45.1088C108.5 44.6795 108.194 44.1122 108.102 43.4068C108.01 42.7322 108.132 42.0115 108.47 41.2448L111.552 34.4368V37.2888L103.41 18.6128C103.103 17.8155 102.996 17.0795 103.088 16.4048C103.21 15.6995 103.548 15.1475 104.1 14.7488C104.682 14.3195 105.48 14.1048 106.492 14.1048C107.32 14.1048 107.979 14.3042 108.47 14.7028C108.991 15.0708 109.466 15.7915 109.896 16.8648L115.324 30.6648H113.852L119.464 16.8188C119.893 15.7762 120.368 15.0708 120.89 14.7028C121.442 14.3042 122.178 14.1048 123.098 14.1048C123.895 14.1048 124.524 14.3195 124.984 14.7488C125.474 15.1475 125.766 15.6842 125.858 16.3588C125.98 17.0335 125.858 17.7695 125.49 18.5668L114.68 43.0848C114.22 44.1275 113.698 44.8328 113.116 45.2008C112.564 45.5688 111.858 45.7528 111 45.7528ZM144.281 37.4728C143.238 37.4728 142.441 37.1815 141.889 36.5988C141.337 36.0162 141.061 35.2035 141.061 34.1608V7.52682C141.061 6.48415 141.352 5.67149 141.935 5.08882C142.548 4.50615 143.376 4.21482 144.419 4.21482C145.339 4.21482 146.059 4.39882 146.581 4.76682C147.133 5.10415 147.639 5.70215 148.099 6.56082L158.725 25.9728H157.161L167.787 6.56082C168.247 5.70215 168.737 5.10415 169.259 4.76682C169.811 4.39882 170.531 4.21482 171.421 4.21482C172.463 4.21482 173.261 4.50615 173.813 5.08882C174.395 5.67149 174.687 6.48415 174.687 7.52682V34.1608C174.687 35.2035 174.411 36.0162 173.859 36.5988C173.307 37.1815 172.509 37.4728 171.467 37.4728C170.424 37.4728 169.611 37.1815 169.029 36.5988C168.477 36.0162 168.201 35.2035 168.201 34.1608V15.5308H169.213L160.657 30.8488C160.289 31.4315 159.89 31.8762 159.461 32.1828C159.062 32.4588 158.525 32.5968 157.851 32.5968C157.176 32.5968 156.624 32.4435 156.195 32.1368C155.765 31.8302 155.382 31.4008 155.045 30.8488L146.397 15.4848H147.501V34.1608C147.501 35.2035 147.225 36.0162 146.673 36.5988C146.151 37.1815 145.354 37.4728 144.281 37.4728ZM187.382 37.5648C185.726 37.5648 184.238 37.2428 182.92 36.5988C181.601 35.9548 180.574 35.0808 179.838 33.9768C179.102 32.8728 178.734 31.6308 178.734 30.2508C178.734 28.5948 179.163 27.2915 180.022 26.3408C180.88 25.3595 182.276 24.6695 184.208 24.2708C186.14 23.8415 188.7 23.6268 191.89 23.6268H194.328V27.2148H191.936C190.372 27.2148 189.099 27.3068 188.118 27.4908C187.167 27.6442 186.477 27.9202 186.048 28.3188C185.649 28.7175 185.45 29.2695 185.45 29.9748C185.45 30.8335 185.741 31.5388 186.324 32.0908C186.937 32.6428 187.811 32.9188 188.946 32.9188C189.835 32.9188 190.617 32.7195 191.292 32.3208C191.997 31.8915 192.549 31.3242 192.948 30.6188C193.346 29.8828 193.546 29.0548 193.546 28.1348V22.8448C193.546 21.4955 193.239 20.5448 192.626 19.9928C192.012 19.4102 190.97 19.1188 189.498 19.1188C188.67 19.1188 187.765 19.2262 186.784 19.4408C185.833 19.6248 184.775 19.9468 183.61 20.4068C182.935 20.7135 182.337 20.7902 181.816 20.6368C181.294 20.4528 180.896 20.1462 180.62 19.7168C180.344 19.2568 180.206 18.7662 180.206 18.2448C180.206 17.6928 180.359 17.1715 180.666 16.6808C180.972 16.1595 181.478 15.7762 182.184 15.5308C183.625 14.9482 184.974 14.5495 186.232 14.3348C187.52 14.1202 188.7 14.0128 189.774 14.0128C192.135 14.0128 194.067 14.3655 195.57 15.0708C197.103 15.7455 198.253 16.8035 199.02 18.2448C199.786 19.6555 200.17 21.4802 200.17 23.7188V33.9308C200.17 35.0655 199.894 35.9395 199.342 36.5528C198.79 37.1662 197.992 37.4728 196.95 37.4728C195.907 37.4728 195.094 37.1662 194.512 36.5528C193.96 35.9395 193.684 35.0655 193.684 33.9308V32.2288L194.006 32.5048C193.822 33.5475 193.423 34.4522 192.81 35.2188C192.227 35.9548 191.476 36.5375 190.556 36.9668C189.636 37.3655 188.578 37.5648 187.382 37.5648ZM215.517 37.5648C213.401 37.5648 211.622 37.2122 210.181 36.5068C208.77 35.8015 207.712 34.7742 207.007 33.4248C206.332 32.0755 205.995 30.3735 205.995 28.3188V19.6708H204.063C203.204 19.6708 202.53 19.4408 202.039 18.9808C201.579 18.5208 201.349 17.8922 201.349 17.0948C201.349 16.2362 201.579 15.5922 202.039 15.1628C202.53 14.7028 203.204 14.4728 204.063 14.4728H205.995V10.9768C205.995 9.81149 206.302 8.93749 206.915 8.35482C207.528 7.74149 208.387 7.43482 209.491 7.43482C210.626 7.43482 211.484 7.74149 212.067 8.35482C212.65 8.93749 212.941 9.81149 212.941 10.9768V14.4728H217.311C218.17 14.4728 218.829 14.7028 219.289 15.1628C219.749 15.5922 219.979 16.2362 219.979 17.0948C219.979 17.8922 219.749 18.5208 219.289 18.9808C218.829 19.4408 218.17 19.6708 217.311 19.6708H212.941V28.0428C212.941 29.3308 213.232 30.2968 213.815 30.9408C214.428 31.5848 215.394 31.9068 216.713 31.9068C217.173 31.9068 217.602 31.8608 218.001 31.7688C218.4 31.6768 218.768 31.6155 219.105 31.5848C219.534 31.5542 219.887 31.6922 220.163 31.9988C220.439 32.2748 220.577 32.9035 220.577 33.8848C220.577 34.6208 220.454 35.2648 220.209 35.8168C219.964 36.3688 219.534 36.7675 218.921 37.0128C218.522 37.1662 217.97 37.2888 217.265 37.3808C216.59 37.5035 216.008 37.5648 215.517 37.5648ZM232.878 37.5648C230.425 37.5648 228.278 37.0895 226.438 36.1388C224.629 35.1575 223.233 33.7775 222.252 31.9988C221.271 30.2202 220.78 28.1195 220.78 25.6968C220.78 23.8875 221.056 22.2622 221.608 20.8208C222.16 19.3795 222.957 18.1528 224 17.1408C225.073 16.1288 226.361 15.3622 227.864 14.8408C229.367 14.2888 231.038 14.0128 232.878 14.0128C233.829 14.0128 234.841 14.1355 235.914 14.3808C236.987 14.5955 238.045 14.9788 239.088 15.5308C239.701 15.8068 240.115 16.2055 240.33 16.7268C240.575 17.2175 240.667 17.7388 240.606 18.2908C240.545 18.8122 240.345 19.2875 240.008 19.7168C239.701 20.1155 239.303 20.3915 238.812 20.5448C238.321 20.6675 237.769 20.5755 237.156 20.2688C236.573 19.9315 235.96 19.6862 235.316 19.5328C234.703 19.3795 234.12 19.3028 233.568 19.3028C232.648 19.3028 231.835 19.4562 231.13 19.7628C230.425 20.0388 229.827 20.4528 229.336 21.0048C228.876 21.5262 228.508 22.1855 228.232 22.9828C227.987 23.7802 227.864 24.7002 227.864 25.7428C227.864 27.7668 228.355 29.3615 229.336 30.5268C230.348 31.6615 231.759 32.2288 233.568 32.2288C234.12 32.2288 234.703 32.1675 235.316 32.0448C235.929 31.8915 236.543 31.6462 237.156 31.3088C237.769 31.0022 238.321 30.9255 238.812 31.0788C239.303 31.2322 239.686 31.5235 239.962 31.9528C240.269 32.3515 240.437 32.8268 240.468 33.3788C240.529 33.9002 240.437 34.4215 240.192 34.9428C239.977 35.4335 239.579 35.8168 238.996 36.0928C237.953 36.6142 236.911 36.9822 235.868 37.1968C234.825 37.4422 233.829 37.5648 232.878 37.5648ZM246.427 37.4728C245.292 37.4728 244.418 37.1662 243.805 36.5528C243.222 35.9395 242.931 35.0655 242.931 33.9308V7.75682C242.931 6.59149 243.222 5.71749 243.805 5.13482C244.418 4.52149 245.292 4.21482 246.427 4.21482C247.531 4.21482 248.374 4.52149 248.957 5.13482C249.57 5.71749 249.877 6.59149 249.877 7.75682V18.7048H249.233C249.938 17.2022 250.981 16.0522 252.361 15.2548C253.772 14.4268 255.366 14.0128 257.145 14.0128C258.954 14.0128 260.442 14.3655 261.607 15.0708C262.772 15.7455 263.646 16.7882 264.229 18.1988C264.812 19.5788 265.103 21.3422 265.103 23.4888V33.9308C265.103 35.0655 264.796 35.9395 264.183 36.5528C263.6 37.1662 262.742 37.4728 261.607 37.4728C260.503 37.4728 259.644 37.1662 259.031 36.5528C258.448 35.9395 258.157 35.0655 258.157 33.9308V23.8108C258.157 22.2468 257.866 21.1275 257.283 20.4528C256.731 19.7475 255.872 19.3948 254.707 19.3948C253.235 19.3948 252.054 19.8548 251.165 20.7748C250.306 21.6948 249.877 22.9215 249.877 24.4548V33.9308C249.877 36.2922 248.727 37.4728 246.427 37.4728ZM272.726 27.0768C272.021 27.0768 271.469 26.8622 271.07 26.4328C270.672 26.0035 270.426 25.3748 270.334 24.5468L268.862 8.81482C268.709 7.43482 268.97 6.33082 269.644 5.50282C270.319 4.64415 271.346 4.21482 272.726 4.21482C274.045 4.21482 275.042 4.64415 275.716 5.50282C276.391 6.33082 276.652 7.43482 276.498 8.81482L275.026 24.5468C274.934 25.3748 274.689 26.0035 274.29 26.4328C273.922 26.8622 273.401 27.0768 272.726 27.0768ZM272.726 37.2888C271.5 37.2888 270.518 36.9208 269.782 36.1848C269.077 35.4488 268.724 34.4982 268.724 33.3328C268.724 32.1982 269.077 31.2782 269.782 30.5728C270.518 29.8368 271.5 29.4688 272.726 29.4688C273.953 29.4688 274.904 29.8368 275.578 30.5728C276.284 31.2782 276.636 32.1982 276.636 33.3328C276.636 34.4982 276.284 35.4488 275.578 36.1848C274.904 36.9208 273.953 37.2888 272.726 37.2888Z"/>
</mask>
<path d="M7.578 37.4728C6.53533 37.4728 5.738 37.1815 5.186 36.5988C4.634 36.0162 4.358 35.2035 4.358 34.1608V7.52682C4.358 6.48415 4.64933 5.67149 5.232 5.08882C5.84533 4.50615 6.67333 4.21482 7.716 4.21482C8.636 4.21482 9.35667 4.39882 9.878 4.76682C10.43 5.10415 10.936 5.70215 11.396 6.56082L22.022 25.9728H20.458L31.084 6.56082C31.544 5.70215 32.0347 5.10415 32.556 4.76682C33.108 4.39882 33.8287 4.21482 34.718 4.21482C35.7607 4.21482 36.558 4.50615 37.11 5.08882C37.6927 5.67149 37.984 6.48415 37.984 7.52682V34.1608C37.984 35.2035 37.708 36.0162 37.156 36.5988C36.604 37.1815 35.8067 37.4728 34.764 37.4728C33.7213 37.4728 32.9087 37.1815 32.326 36.5988C31.774 36.0162 31.498 35.2035 31.498 34.1608V15.5308H32.51L23.954 30.8488C23.586 31.4315 23.1873 31.8762 22.758 32.1828C22.3593 32.4588 21.8227 32.5968 21.148 32.5968C20.4733 32.5968 19.9213 32.4435 19.492 32.1368C19.0627 31.8302 18.6793 31.4008 18.342 30.8488L9.694 15.4848H10.798V34.1608C10.798 35.2035 10.522 36.0162 9.97 36.5988C9.44867 37.1815 8.65133 37.4728 7.578 37.4728ZM54.7729 37.5648C52.1049 37.5648 49.8049 37.0895 47.8729 36.1388C45.9716 35.1575 44.4996 33.7928 43.4569 32.0448C42.4449 30.2662 41.9389 28.1808 41.9389 25.7888C41.9389 23.4582 42.4296 21.4188 43.4109 19.6708C44.3923 17.8922 45.7569 16.5122 47.5049 15.5308C49.2836 14.5188 51.2923 14.0128 53.5309 14.0128C55.1563 14.0128 56.6283 14.2888 57.9469 14.8408C59.2656 15.3622 60.4003 16.1288 61.3509 17.1408C62.3016 18.1222 63.0223 19.3335 63.5129 20.7748C64.0036 22.1855 64.2489 23.7648 64.2489 25.5128C64.2489 26.0955 64.0649 26.5402 63.6969 26.8468C63.3289 27.1228 62.7923 27.2608 62.0869 27.2608H47.6429V23.6728H59.2349L58.4989 24.3168C58.4989 23.0595 58.3149 22.0168 57.9469 21.1888C57.5789 20.3302 57.0423 19.6862 56.3369 19.2568C55.6623 18.8275 54.8189 18.6128 53.8069 18.6128C52.6723 18.6128 51.7063 18.8735 50.9089 19.3948C50.1116 19.9162 49.4983 20.6675 49.0689 21.6488C48.6396 22.6302 48.4249 23.8108 48.4249 25.1908V25.5588C48.4249 27.8895 48.9616 29.6068 50.0349 30.7108C51.1389 31.8148 52.7643 32.3668 54.9109 32.3668C55.6469 32.3668 56.4903 32.2748 57.4409 32.0908C58.3916 31.9068 59.2809 31.6155 60.1089 31.2168C60.8143 30.8795 61.4429 30.7722 61.9949 30.8948C62.5469 30.9868 62.9763 31.2322 63.2829 31.6308C63.5896 32.0295 63.7583 32.4895 63.7889 33.0108C63.8503 33.5322 63.7429 34.0535 63.4669 34.5748C63.1909 35.0655 62.7309 35.4795 62.0869 35.8168C61.0443 36.3995 59.8636 36.8288 58.5449 37.1048C57.2569 37.4115 55.9996 37.5648 54.7729 37.5648ZM70.957 37.4728C69.7917 37.4728 68.9023 37.1662 68.289 36.5528C67.6757 35.9395 67.369 35.0655 67.369 33.9308V17.6008C67.369 16.4662 67.6603 15.6075 68.243 15.0248C68.8563 14.4115 69.6997 14.1048 70.773 14.1048C71.877 14.1048 72.7203 14.4115 73.303 15.0248C73.8857 15.6075 74.177 16.4662 74.177 17.6008V19.9928H73.717C74.085 18.1528 74.8977 16.7268 76.155 15.7148C77.4123 14.7028 79.0377 14.1355 81.031 14.0128C81.7977 13.9515 82.3803 14.1508 82.779 14.6108C83.2083 15.0402 83.4383 15.7608 83.469 16.7728C83.5303 17.7235 83.331 18.4748 82.871 19.0268C82.4417 19.5788 81.7057 19.9162 80.663 20.0388L79.605 20.1308C77.857 20.2842 76.5537 20.7902 75.695 21.6488C74.867 22.5075 74.453 23.7495 74.453 25.3748V33.9308C74.453 35.0655 74.1463 35.9395 73.533 36.5528C72.9503 37.1662 72.0917 37.4728 70.957 37.4728ZM88.994 37.4728C87.8287 37.4728 86.9394 37.1662 86.326 36.5528C85.7127 35.9395 85.406 35.0655 85.406 33.9308V17.6008C85.406 16.4662 85.6974 15.6075 86.28 15.0248C86.8934 14.4115 87.7367 14.1048 88.81 14.1048C89.914 14.1048 90.7574 14.4115 91.34 15.0248C91.9227 15.6075 92.214 16.4662 92.214 17.6008V19.9928H91.754C92.122 18.1528 92.9347 16.7268 94.192 15.7148C95.4494 14.7028 97.0747 14.1355 99.068 14.0128C99.8347 13.9515 100.417 14.1508 100.816 14.6108C101.245 15.0402 101.475 15.7608 101.506 16.7728C101.567 17.7235 101.368 18.4748 100.908 19.0268C100.479 19.5788 99.7427 19.9162 98.7 20.0388L97.642 20.1308C95.894 20.2842 94.5907 20.7902 93.732 21.6488C92.904 22.5075 92.49 23.7495 92.49 25.3748V33.9308C92.49 35.0655 92.1834 35.9395 91.57 36.5528C90.9874 37.1662 90.1287 37.4728 88.994 37.4728ZM111 45.7528C110.202 45.7528 109.543 45.5382 109.022 45.1088C108.5 44.6795 108.194 44.1122 108.102 43.4068C108.01 42.7322 108.132 42.0115 108.47 41.2448L111.552 34.4368V37.2888L103.41 18.6128C103.103 17.8155 102.996 17.0795 103.088 16.4048C103.21 15.6995 103.548 15.1475 104.1 14.7488C104.682 14.3195 105.48 14.1048 106.492 14.1048C107.32 14.1048 107.979 14.3042 108.47 14.7028C108.991 15.0708 109.466 15.7915 109.896 16.8648L115.324 30.6648H113.852L119.464 16.8188C119.893 15.7762 120.368 15.0708 120.89 14.7028C121.442 14.3042 122.178 14.1048 123.098 14.1048C123.895 14.1048 124.524 14.3195 124.984 14.7488C125.474 15.1475 125.766 15.6842 125.858 16.3588C125.98 17.0335 125.858 17.7695 125.49 18.5668L114.68 43.0848C114.22 44.1275 113.698 44.8328 113.116 45.2008C112.564 45.5688 111.858 45.7528 111 45.7528ZM144.281 37.4728C143.238 37.4728 142.441 37.1815 141.889 36.5988C141.337 36.0162 141.061 35.2035 141.061 34.1608V7.52682C141.061 6.48415 141.352 5.67149 141.935 5.08882C142.548 4.50615 143.376 4.21482 144.419 4.21482C145.339 4.21482 146.059 4.39882 146.581 4.76682C147.133 5.10415 147.639 5.70215 148.099 6.56082L158.725 25.9728H157.161L167.787 6.56082C168.247 5.70215 168.737 5.10415 169.259 4.76682C169.811 4.39882 170.531 4.21482 171.421 4.21482C172.463 4.21482 173.261 4.50615 173.813 5.08882C174.395 5.67149 174.687 6.48415 174.687 7.52682V34.1608C174.687 35.2035 174.411 36.0162 173.859 36.5988C173.307 37.1815 172.509 37.4728 171.467 37.4728C170.424 37.4728 169.611 37.1815 169.029 36.5988C168.477 36.0162 168.201 35.2035 168.201 34.1608V15.5308H169.213L160.657 30.8488C160.289 31.4315 159.89 31.8762 159.461 32.1828C159.062 32.4588 158.525 32.5968 157.851 32.5968C157.176 32.5968 156.624 32.4435 156.195 32.1368C155.765 31.8302 155.382 31.4008 155.045 30.8488L146.397 15.4848H147.501V34.1608C147.501 35.2035 147.225 36.0162 146.673 36.5988C146.151 37.1815 145.354 37.4728 144.281 37.4728ZM187.382 37.5648C185.726 37.5648 184.238 37.2428 182.92 36.5988C181.601 35.9548 180.574 35.0808 179.838 33.9768C179.102 32.8728 178.734 31.6308 178.734 30.2508C178.734 28.5948 179.163 27.2915 180.022 26.3408C180.88 25.3595 182.276 24.6695 184.208 24.2708C186.14 23.8415 188.7 23.6268 191.89 23.6268H194.328V27.2148H191.936C190.372 27.2148 189.099 27.3068 188.118 27.4908C187.167 27.6442 186.477 27.9202 186.048 28.3188C185.649 28.7175 185.45 29.2695 185.45 29.9748C185.45 30.8335 185.741 31.5388 186.324 32.0908C186.937 32.6428 187.811 32.9188 188.946 32.9188C189.835 32.9188 190.617 32.7195 191.292 32.3208C191.997 31.8915 192.549 31.3242 192.948 30.6188C193.346 29.8828 193.546 29.0548 193.546 28.1348V22.8448C193.546 21.4955 193.239 20.5448 192.626 19.9928C192.012 19.4102 190.97 19.1188 189.498 19.1188C188.67 19.1188 187.765 19.2262 186.784 19.4408C185.833 19.6248 184.775 19.9468 183.61 20.4068C182.935 20.7135 182.337 20.7902 181.816 20.6368C181.294 20.4528 180.896 20.1462 180.62 19.7168C180.344 19.2568 180.206 18.7662 180.206 18.2448C180.206 17.6928 180.359 17.1715 180.666 16.6808C180.972 16.1595 181.478 15.7762 182.184 15.5308C183.625 14.9482 184.974 14.5495 186.232 14.3348C187.52 14.1202 188.7 14.0128 189.774 14.0128C192.135 14.0128 194.067 14.3655 195.57 15.0708C197.103 15.7455 198.253 16.8035 199.02 18.2448C199.786 19.6555 200.17 21.4802 200.17 23.7188V33.9308C200.17 35.0655 199.894 35.9395 199.342 36.5528C198.79 37.1662 197.992 37.4728 196.95 37.4728C195.907 37.4728 195.094 37.1662 194.512 36.5528C193.96 35.9395 193.684 35.0655 193.684 33.9308V32.2288L194.006 32.5048C193.822 33.5475 193.423 34.4522 192.81 35.2188C192.227 35.9548 191.476 36.5375 190.556 36.9668C189.636 37.3655 188.578 37.5648 187.382 37.5648ZM215.517 37.5648C213.401 37.5648 211.622 37.2122 210.181 36.5068C208.77 35.8015 207.712 34.7742 207.007 33.4248C206.332 32.0755 205.995 30.3735 205.995 28.3188V19.6708H204.063C203.204 19.6708 202.53 19.4408 202.039 18.9808C201.579 18.5208 201.349 17.8922 201.349 17.0948C201.349 16.2362 201.579 15.5922 202.039 15.1628C202.53 14.7028 203.204 14.4728 204.063 14.4728H205.995V10.9768C205.995 9.81149 206.302 8.93749 206.915 8.35482C207.528 7.74149 208.387 7.43482 209.491 7.43482C210.626 7.43482 211.484 7.74149 212.067 8.35482C212.65 8.93749 212.941 9.81149 212.941 10.9768V14.4728H217.311C218.17 14.4728 218.829 14.7028 219.289 15.1628C219.749 15.5922 219.979 16.2362 219.979 17.0948C219.979 17.8922 219.749 18.5208 219.289 18.9808C218.829 19.4408 218.17 19.6708 217.311 19.6708H212.941V28.0428C212.941 29.3308 213.232 30.2968 213.815 30.9408C214.428 31.5848 215.394 31.9068 216.713 31.9068C217.173 31.9068 217.602 31.8608 218.001 31.7688C218.4 31.6768 218.768 31.6155 219.105 31.5848C219.534 31.5542 219.887 31.6922 220.163 31.9988C220.439 32.2748 220.577 32.9035 220.577 33.8848C220.577 34.6208 220.454 35.2648 220.209 35.8168C219.964 36.3688 219.534 36.7675 218.921 37.0128C218.522 37.1662 217.97 37.2888 217.265 37.3808C216.59 37.5035 216.008 37.5648 215.517 37.5648ZM232.878 37.5648C230.425 37.5648 228.278 37.0895 226.438 36.1388C224.629 35.1575 223.233 33.7775 222.252 31.9988C221.271 30.2202 220.78 28.1195 220.78 25.6968C220.78 23.8875 221.056 22.2622 221.608 20.8208C222.16 19.3795 222.957 18.1528 224 17.1408C225.073 16.1288 226.361 15.3622 227.864 14.8408C229.367 14.2888 231.038 14.0128 232.878 14.0128C233.829 14.0128 234.841 14.1355 235.914 14.3808C236.987 14.5955 238.045 14.9788 239.088 15.5308C239.701 15.8068 240.115 16.2055 240.33 16.7268C240.575 17.2175 240.667 17.7388 240.606 18.2908C240.545 18.8122 240.345 19.2875 240.008 19.7168C239.701 20.1155 239.303 20.3915 238.812 20.5448C238.321 20.6675 237.769 20.5755 237.156 20.2688C236.573 19.9315 235.96 19.6862 235.316 19.5328C234.703 19.3795 234.12 19.3028 233.568 19.3028C232.648 19.3028 231.835 19.4562 231.13 19.7628C230.425 20.0388 229.827 20.4528 229.336 21.0048C228.876 21.5262 228.508 22.1855 228.232 22.9828C227.987 23.7802 227.864 24.7002 227.864 25.7428C227.864 27.7668 228.355 29.3615 229.336 30.5268C230.348 31.6615 231.759 32.2288 233.568 32.2288C234.12 32.2288 234.703 32.1675 235.316 32.0448C235.929 31.8915 236.543 31.6462 237.156 31.3088C237.769 31.0022 238.321 30.9255 238.812 31.0788C239.303 31.2322 239.686 31.5235 239.962 31.9528C240.269 32.3515 240.437 32.8268 240.468 33.3788C240.529 33.9002 240.437 34.4215 240.192 34.9428C239.977 35.4335 239.579 35.8168 238.996 36.0928C237.953 36.6142 236.911 36.9822 235.868 37.1968C234.825 37.4422 233.829 37.5648 232.878 37.5648ZM246.427 37.4728C245.292 37.4728 244.418 37.1662 243.805 36.5528C243.222 35.9395 242.931 35.0655 242.931 33.9308V7.75682C242.931 6.59149 243.222 5.71749 243.805 5.13482C244.418 4.52149 245.292 4.21482 246.427 4.21482C247.531 4.21482 248.374 4.52149 248.957 5.13482C249.57 5.71749 249.877 6.59149 249.877 7.75682V18.7048H249.233C249.938 17.2022 250.981 16.0522 252.361 15.2548C253.772 14.4268 255.366 14.0128 257.145 14.0128C258.954 14.0128 260.442 14.3655 261.607 15.0708C262.772 15.7455 263.646 16.7882 264.229 18.1988C264.812 19.5788 265.103 21.3422 265.103 23.4888V33.9308C265.103 35.0655 264.796 35.9395 264.183 36.5528C263.6 37.1662 262.742 37.4728 261.607 37.4728C260.503 37.4728 259.644 37.1662 259.031 36.5528C258.448 35.9395 258.157 35.0655 258.157 33.9308V23.8108C258.157 22.2468 257.866 21.1275 257.283 20.4528C256.731 19.7475 255.872 19.3948 254.707 19.3948C253.235 19.3948 252.054 19.8548 251.165 20.7748C250.306 21.6948 249.877 22.9215 249.877 24.4548V33.9308C249.877 36.2922 248.727 37.4728 246.427 37.4728ZM272.726 27.0768C272.021 27.0768 271.469 26.8622 271.07 26.4328C270.672 26.0035 270.426 25.3748 270.334 24.5468L268.862 8.81482C268.709 7.43482 268.97 6.33082 269.644 5.50282C270.319 4.64415 271.346 4.21482 272.726 4.21482C274.045 4.21482 275.042 4.64415 275.716 5.50282C276.391 6.33082 276.652 7.43482 276.498 8.81482L275.026 24.5468C274.934 25.3748 274.689 26.0035 274.29 26.4328C273.922 26.8622 273.401 27.0768 272.726 27.0768ZM272.726 37.2888C271.5 37.2888 270.518 36.9208 269.782 36.1848C269.077 35.4488 268.724 34.4982 268.724 33.3328C268.724 32.1982 269.077 31.2782 269.782 30.5728C270.518 29.8368 271.5 29.4688 272.726 29.4688C273.953 29.4688 274.904 29.8368 275.578 30.5728C276.284 31.2782 276.636 32.1982 276.636 33.3328C276.636 34.4982 276.284 35.4488 275.578 36.1848C274.904 36.9208 273.953 37.2888 272.726 37.2888Z" fill="#FF1659"/>
<path d="M5.186 36.5988L8.08981 33.8478H8.08981L5.186 36.5988ZM5.232 5.08882L2.477 2.18882L2.43983 2.22414L2.40357 2.26039L5.232 5.08882ZM9.878 4.76682L7.57126 8.03469L7.67933 8.11097L7.7922 8.17995L9.878 4.76682ZM11.396 6.56082L7.87008 8.44971L7.87861 8.46563L7.88728 8.48147L11.396 6.56082ZM22.022 25.9728V29.9728H28.7716L25.5307 24.0522L22.022 25.9728ZM20.458 25.9728L16.9493 24.0522L13.7084 29.9728H20.458V25.9728ZM31.084 6.56082L34.5927 8.48147L34.6014 8.46563L34.6099 8.44971L31.084 6.56082ZM32.556 4.76682L34.729 8.12511L34.752 8.11022L34.7748 8.09502L32.556 4.76682ZM37.11 5.08882L34.2062 7.8398L34.2434 7.87903L34.2816 7.91725L37.11 5.08882ZM37.156 36.5988L34.2522 33.8478L37.156 36.5988ZM32.326 36.5988L29.4222 39.3498L29.4594 39.389L29.4976 39.4272L32.326 36.5988ZM31.498 15.5308V11.5308H27.498V15.5308H31.498ZM32.51 15.5308L36.0022 17.4814L39.3259 11.5308H32.51V15.5308ZM23.954 30.8488L27.336 32.9848L27.3936 32.8936L27.4462 32.7994L23.954 30.8488ZM22.758 32.1828L25.0348 35.4716L25.059 35.4548L25.083 35.4378L22.758 32.1828ZM19.492 32.1368L21.817 28.8819L19.492 32.1368ZM18.342 30.8488L14.8563 32.8109L14.8915 32.8734L14.9289 32.9346L18.342 30.8488ZM9.694 15.4848V11.4848H2.85238L6.20826 17.4469L9.694 15.4848ZM10.798 15.4848H14.798V11.4848H10.798V15.4848ZM9.97 36.5988L7.06619 33.8478L7.02702 33.8892L6.98904 33.9316L9.97 36.5988ZM7.578 33.4728C7.42175 33.4728 7.44211 33.4502 7.57077 33.4973C7.71902 33.5514 7.91568 33.664 8.08981 33.8478L2.28219 39.3498C3.79816 40.95 5.78239 41.4728 7.578 41.4728V33.4728ZM8.08981 33.8478C8.15855 33.9204 8.21706 33.9988 8.26369 34.0774C8.30989 34.1553 8.33734 34.2213 8.35253 34.266C8.38172 34.352 8.358 34.3355 8.358 34.1608H0.358C0.358 35.9104 0.8352 37.8224 2.28219 39.3498L8.08981 33.8478ZM8.358 34.1608V7.52682H0.358V34.1608H8.358ZM8.358 7.52682C8.358 7.37288 8.37993 7.37897 8.34186 7.48516C8.3224 7.53945 8.29008 7.61157 8.23952 7.69229C8.18862 7.77355 8.12768 7.85 8.06043 7.91725L2.40357 2.26039C0.884522 3.77944 0.358 5.71942 0.358 7.52682H8.358ZM7.987 7.98882C7.93341 8.03973 7.872 8.08689 7.80626 8.12675C7.74091 8.16638 7.68316 8.1916 7.64062 8.20657C7.55645 8.23619 7.56409 8.21482 7.716 8.21482V0.21482C5.89896 0.21482 3.99771 0.744154 2.477 2.18882L7.987 7.98882ZM7.716 8.21482C7.91757 8.21482 7.98563 8.23581 7.95697 8.22849C7.92176 8.2195 7.76902 8.17428 7.57126 8.03469L12.1847 1.49895C10.7502 0.486323 9.11233 0.21482 7.716 0.21482V8.21482ZM7.7922 8.17995C7.6358 8.08437 7.58487 8.01298 7.61796 8.05209C7.65198 8.0923 7.7421 8.21081 7.87008 8.44971L14.9219 4.67193C14.2832 3.47974 13.355 2.20385 11.9638 1.35369L7.7922 8.17995ZM7.88728 8.48147L18.5133 27.8935L25.5307 24.0522L14.9047 4.64017L7.88728 8.48147ZM22.022 21.9728H20.458V29.9728H22.022V21.9728ZM23.9667 27.8935L34.5927 8.48147L27.5753 4.64017L16.9493 24.0522L23.9667 27.8935ZM34.6099 8.44971C34.7469 8.19395 34.8453 8.0592 34.8893 8.00559C34.9341 7.95103 34.8884 8.02195 34.729 8.12511L30.383 1.40854C29.0593 2.26505 28.1729 3.52426 27.5581 4.67194L34.6099 8.44971ZM34.7748 8.09502C34.7056 8.14117 34.6431 8.1734 34.5933 8.195C34.544 8.21638 34.511 8.22568 34.5 8.22849C34.4813 8.23328 34.5442 8.21482 34.718 8.21482V0.21482C33.302 0.21482 31.7355 0.506433 30.3372 1.43862L34.7748 8.09502ZM34.718 8.21482C34.8743 8.21482 34.8539 8.23739 34.7252 8.19038C34.577 8.13621 34.3803 8.0236 34.2062 7.8398L40.0138 2.33784C38.4978 0.737654 36.5136 0.21482 34.718 0.21482V8.21482ZM34.2816 7.91725C34.2143 7.84999 34.1534 7.77355 34.1025 7.69229C34.0519 7.61157 34.0196 7.53944 34.0001 7.48516C33.9621 7.37897 33.984 7.37288 33.984 7.52682H41.984C41.984 5.71942 41.4575 3.77944 39.9384 2.26039L34.2816 7.91725ZM33.984 7.52682V34.1608H41.984V7.52682H33.984ZM33.984 34.1608C33.984 34.3355 33.9603 34.352 33.9895 34.266C34.0047 34.2213 34.0321 34.1553 34.0783 34.0774C34.1249 33.9988 34.1835 33.9204 34.2522 33.8478L40.0598 39.3498C41.5068 37.8224 41.984 35.9104 41.984 34.1608H33.984ZM34.2522 33.8478C34.4263 33.664 34.623 33.5514 34.7712 33.4973C34.8999 33.4502 34.9203 33.4728 34.764 33.4728V41.4728C36.5596 41.4728 38.5438 40.95 40.0598 39.3498L34.2522 33.8478ZM34.764 33.4728C34.6101 33.4728 34.6162 33.4509 34.7223 33.489C34.7766 33.5084 34.8488 33.5407 34.9295 33.5913C35.0107 33.6422 35.0872 33.7031 35.1544 33.7704L29.4976 39.4272C31.0166 40.9463 32.9566 41.4728 34.764 41.4728V33.4728ZM35.2298 33.8478C35.2985 33.9204 35.3571 33.9988 35.4037 34.0774C35.4499 34.1553 35.4773 34.2213 35.4925 34.266C35.5217 34.352 35.498 34.3355 35.498 34.1608H27.498C27.498 35.9104 27.9752 37.8224 29.4222 39.3498L35.2298 33.8478ZM35.498 34.1608V15.5308H27.498V34.1608H35.498ZM31.498 19.5308H32.51V11.5308H31.498V19.5308ZM29.0178 13.5802L20.4618 28.8982L27.4462 32.7994L36.0022 17.4814L29.0178 13.5802ZM20.572 28.7129C20.4897 28.8433 20.4301 28.9164 20.4007 28.9491C20.3719 28.9813 20.3803 28.9656 20.433 28.9279L25.083 35.4378C26.0412 34.7533 26.7719 33.8778 27.336 32.9848L20.572 28.7129ZM20.4812 28.8941C20.9668 28.5578 21.3177 28.5968 21.148 28.5968V36.5968C22.3277 36.5968 23.7518 36.3598 25.0348 35.4716L20.4812 28.8941ZM21.148 28.5968C21.0743 28.5968 21.4003 28.5843 21.817 28.8819L17.167 35.3918C18.4424 36.3027 19.8724 36.5968 21.148 36.5968V28.5968ZM21.817 28.8819C21.9122 28.95 21.8737 28.9571 21.7551 28.763L14.9289 32.9346C15.4849 33.8445 16.2131 34.7104 17.167 35.3918L21.817 28.8819ZM21.8277 28.8868L13.1797 13.5228L6.20826 17.4469L14.8563 32.8109L21.8277 28.8868ZM9.694 19.4848H10.798V11.4848H9.694V19.4848ZM6.798 15.4848V34.1608H14.798V15.4848H6.798ZM6.798 34.1608C6.798 34.3355 6.77428 34.352 6.80347 34.266C6.81867 34.2213 6.84612 34.1553 6.89231 34.0774C6.93894 33.9988 6.99745 33.9204 7.06619 33.8478L12.8738 39.3498C14.3208 37.8224 14.798 35.9104 14.798 34.1608H6.798ZM6.98904 33.9316C7.20368 33.6917 7.44365 33.5574 7.60823 33.4973C7.74837 33.4461 7.76481 33.4728 7.578 33.4728V41.4728C9.34782 41.4728 11.4192 40.9779 12.951 39.266L6.98904 33.9316ZM47.8729 36.1388L46.0384 39.6933L46.0725 39.7109L46.1069 39.7279L47.8729 36.1388ZM43.4569 32.0448L39.9803 34.0229L40.0006 34.0586L40.0216 34.0939L43.4569 32.0448ZM43.4109 19.6708L46.8989 21.629L46.9061 21.6161L46.9132 21.6031L43.4109 19.6708ZM47.5049 15.5308L49.4631 19.0188L49.4731 19.0131L49.483 19.0075L47.5049 15.5308ZM57.9469 14.8408L56.4024 18.5306L56.4392 18.546L56.4763 18.5607L57.9469 14.8408ZM61.3509 17.1408L58.4355 19.8795L58.4566 19.9019L58.478 19.924L61.3509 17.1408ZM63.5129 20.7748L59.7263 22.0639L59.7306 22.0764L59.7349 22.0889L63.5129 20.7748ZM63.6969 26.8468L66.0969 30.0468L66.1789 29.9853L66.2577 29.9197L63.6969 26.8468ZM47.6429 27.2608H43.6429V31.2608H47.6429V27.2608ZM47.6429 23.6728V19.6728H43.6429V23.6728H47.6429ZM59.2349 23.6728L61.8689 26.6831L69.8807 19.6728H59.2349V23.6728ZM58.4989 24.3168H54.4989V33.1319L61.1329 27.3271L58.4989 24.3168ZM57.9469 21.1888L54.2703 22.7645L54.2808 22.789L54.2917 22.8134L57.9469 21.1888ZM56.3369 19.2568L54.1894 22.6315L54.2231 22.6529L54.2571 22.6736L56.3369 19.2568ZM50.9089 19.3948L53.0979 22.7427L53.0979 22.7427L50.9089 19.3948ZM50.0349 30.7108L47.1669 33.4991L47.1866 33.5193L47.2065 33.5392L50.0349 30.7108ZM57.4409 32.0908L58.201 36.0179L57.4409 32.0908ZM60.1089 31.2168L58.3831 27.6083L58.3737 27.6128L60.1089 31.2168ZM61.9949 30.8948L61.1272 34.7996L61.2317 34.8228L61.3373 34.8404L61.9949 30.8948ZM63.2829 31.6308L60.1124 34.0697L63.2829 31.6308ZM63.7889 33.0108L59.7958 33.2457L59.8027 33.3623L59.8163 33.4782L63.7889 33.0108ZM63.4669 34.5748L66.9532 36.5359L66.9782 36.4914L67.0021 36.4464L63.4669 34.5748ZM62.0869 35.8168L60.2309 32.2735L60.1829 32.2986L60.1356 32.3251L62.0869 35.8168ZM58.5449 37.1048L57.7255 33.1897L57.6718 33.2009L57.6184 33.2136L58.5449 37.1048ZM54.7729 33.5648C52.574 33.5648 50.906 33.1732 49.639 32.5498L46.1069 39.7279C48.7039 41.0057 51.6358 41.5648 54.7729 41.5648V33.5648ZM49.7075 32.5843C48.4342 31.9272 47.5323 31.0688 46.8922 29.9957L40.0216 34.0939C41.4669 36.5169 43.509 38.3878 46.0384 39.6933L49.7075 32.5843ZM46.9336 30.0667C46.3186 28.9858 45.9389 27.6053 45.9389 25.7888H37.9389C37.9389 28.7564 38.5713 31.5465 39.9803 34.0229L46.9336 30.0667ZM45.9389 25.7888C45.9389 24.0315 46.3043 22.688 46.8989 21.629L39.923 17.7127C38.5549 20.1497 37.9389 22.8848 37.9389 25.7888H45.9389ZM46.9132 21.6031C47.5398 20.4675 48.3737 19.6303 49.4631 19.0188L45.5468 12.0429C43.1401 13.394 41.2447 15.3169 39.9086 17.7385L46.9132 21.6031ZM49.483 19.0075C50.6032 18.3701 51.9189 18.0128 53.5309 18.0128V10.0128C50.6656 10.0128 47.964 10.6675 45.5268 12.0542L49.483 19.0075ZM53.5309 18.0128C54.6982 18.0128 55.6354 18.2095 56.4024 18.5306L59.4915 11.1511C57.6211 10.3681 55.6143 10.0128 53.5309 10.0128V18.0128ZM56.4763 18.5607C57.259 18.8701 57.8971 19.3063 58.4355 19.8795L64.2663 14.4021C62.9035 12.9513 61.2722 11.8542 59.4176 11.121L56.4763 18.5607ZM58.478 19.924C58.9726 20.4345 59.4041 21.1175 59.7263 22.0639L67.2995 19.4858C66.6404 17.5495 65.6306 15.8098 64.2239 14.3576L58.478 19.924ZM59.7349 22.0889C60.056 23.012 60.2489 24.1376 60.2489 25.5128H68.2489C68.2489 23.392 67.9512 21.359 67.2909 19.4607L59.7349 22.0889ZM60.2489 25.5128C60.2489 25.3873 60.2687 25.1072 60.4149 24.7539C60.5695 24.3802 60.8199 24.0375 61.1362 23.7739L66.2577 29.9197C67.7342 28.6893 68.2489 27.0005 68.2489 25.5128H60.2489ZM61.2969 23.6468C61.6086 23.4131 61.8845 23.3188 62.0223 23.2833C62.1537 23.2496 62.1901 23.2608 62.0869 23.2608V31.2608C63.2228 31.2608 64.7548 31.0534 66.0969 30.0468L61.2969 23.6468ZM62.0869 23.2608H47.6429V31.2608H62.0869V23.2608ZM51.6429 27.2608V23.6728H43.6429V27.2608H51.6429ZM47.6429 27.6728H59.2349V19.6728H47.6429V27.6728ZM56.6009 20.6625L55.8649 21.3065L61.1329 27.3271L61.8689 26.6831L56.6009 20.6625ZM62.4989 24.3168C62.4989 22.7028 62.2675 21.0613 61.6022 19.5643L54.2917 22.8134C54.3623 22.9723 54.4989 23.4162 54.4989 24.3168H62.4989ZM61.6235 19.6131C60.9725 18.0942 59.9242 16.7576 58.4167 15.84L54.2571 22.6736C54.2456 22.6666 54.2321 22.6569 54.2188 22.6455C54.2057 22.6342 54.1979 22.6254 54.1955 22.6226C54.1895 22.6153 54.2216 22.6508 54.2703 22.7645L61.6235 19.6131ZM58.4844 15.8822C57.0175 14.9487 55.3791 14.6128 53.8069 14.6128V22.6128C54.0328 22.6128 54.1598 22.637 54.2117 22.6502C54.2584 22.6621 54.2401 22.6637 54.1894 22.6315L58.4844 15.8822ZM53.8069 14.6128C52.0455 14.6128 50.2837 15.0245 48.7199 16.0469L53.0979 22.7427C53.1288 22.7225 53.299 22.6128 53.8069 22.6128V14.6128ZM48.7199 16.0469C47.1927 17.0455 46.1054 18.4431 45.4043 20.0455L52.7336 23.2521C52.8912 22.8918 53.0305 22.7868 53.0979 22.7427L48.7199 16.0469ZM45.4043 20.0455C44.6999 21.6557 44.4249 23.4116 44.4249 25.1908H52.4249C52.4249 24.21 52.5793 23.6046 52.7336 23.2521L45.4043 20.0455ZM44.4249 25.1908V25.5588H52.4249V25.1908H44.4249ZM44.4249 25.5588C44.4249 28.4064 45.0698 31.3421 47.1669 33.4991L52.9029 27.9225C52.8534 27.8716 52.4249 27.3726 52.4249 25.5588H44.4249ZM47.2065 33.5392C49.306 35.6388 52.1098 36.3668 54.9109 36.3668V28.3668C53.4187 28.3668 52.9719 27.9909 52.8633 27.8824L47.2065 33.5392ZM54.9109 36.3668C55.9673 36.3668 57.0733 36.2362 58.201 36.0179L56.6808 28.1637C55.9072 28.3134 55.3266 28.3668 54.9109 28.3668V36.3668ZM58.201 36.0179C59.4712 35.7721 60.6902 35.3765 61.8442 34.8208L58.3737 27.6128C57.8717 27.8545 57.312 28.0415 56.6808 28.1637L58.201 36.0179ZM61.8347 34.8254C62.0374 34.7285 61.7289 34.9333 61.1272 34.7996L62.8626 26.9901C61.1569 26.611 59.5911 27.0305 58.3831 27.6083L61.8347 34.8254ZM61.3373 34.8404C61.2074 34.8187 60.993 34.7617 60.7464 34.6208C60.4931 34.4761 60.2764 34.2828 60.1124 34.0697L66.4534 29.192C65.4585 27.8986 64.0808 27.1873 62.6525 26.9492L61.3373 34.8404ZM60.1124 34.0697C60.0246 33.9555 59.9432 33.8136 59.8839 33.6518C59.8251 33.4914 59.8019 33.3496 59.7958 33.2457L67.782 32.7759C67.7062 31.4866 67.2685 30.2516 66.4534 29.192L60.1124 34.0697ZM59.8163 33.4782C59.7963 33.308 59.8052 33.1386 59.8366 32.9862C59.8671 32.8378 59.9114 32.7418 59.9318 32.7033L67.0021 36.4464C67.609 35.3 67.9292 33.9685 67.7615 32.5434L59.8163 33.4782ZM59.9806 32.6138C60.1798 32.2597 60.3872 32.1916 60.2309 32.2735L63.943 39.3601C65.0747 38.7674 66.202 37.8713 66.9532 36.5359L59.9806 32.6138ZM60.1356 32.3251C59.4886 32.6866 58.6976 32.9862 57.7255 33.1897L59.3644 41.02C61.0296 40.6714 62.5999 40.1124 64.0382 39.3086L60.1356 32.3251ZM57.6184 33.2136C56.6101 33.4537 55.664 33.5648 54.7729 33.5648V41.5648C56.3352 41.5648 57.9037 41.3693 59.4714 40.996L57.6184 33.2136ZM68.289 36.5528L65.4606 39.3812L68.289 36.5528ZM68.243 15.0248L65.4146 12.1964V12.1964L68.243 15.0248ZM73.303 15.0248L70.403 17.7798L70.4383 17.817L70.4746 17.8532L73.303 15.0248ZM74.177 19.9928V23.9928H78.177V19.9928H74.177ZM73.717 19.9928L69.7947 19.2084L68.8378 23.9928H73.717V19.9928ZM81.031 14.0128L81.2767 18.0053L81.3134 18.003L81.35 18.0001L81.031 14.0128ZM82.779 14.6108L79.7563 17.2305L79.8497 17.3384L79.9506 17.4392L82.779 14.6108ZM83.469 16.7728L79.4708 16.894L79.4729 16.9622L79.4773 17.0304L83.469 16.7728ZM82.871 19.0268L79.7981 16.4661L79.755 16.5179L79.7136 16.5711L82.871 19.0268ZM80.663 20.0388L81.0095 24.0238L81.0701 24.0185L81.1304 24.0114L80.663 20.0388ZM79.605 20.1308L79.2585 16.1459L79.2555 16.1461L79.605 20.1308ZM75.695 21.6488L72.8666 18.8204L72.8409 18.8461L72.8156 18.8723L75.695 21.6488ZM73.533 36.5528L70.7046 33.7244L70.6683 33.7607L70.633 33.7978L73.533 36.5528ZM70.957 33.4728C70.7163 33.4728 70.6586 33.4402 70.72 33.4613C70.7534 33.4729 70.8138 33.4976 70.8894 33.5439C70.966 33.5908 71.0445 33.6515 71.1174 33.7244L65.4606 39.3812C67.0533 40.974 69.1063 41.4728 70.957 41.4728V33.4728ZM71.1174 33.7244C71.1843 33.7913 71.2421 33.8651 71.2883 33.9397C71.334 34.0136 71.36 34.0749 71.3734 34.113C71.3987 34.185 71.369 34.145 71.369 33.9308H63.369C63.369 35.7864 63.8868 37.8074 65.4606 39.3812L71.1174 33.7244ZM71.369 33.9308V17.6008H63.369V33.9308H71.369ZM71.369 17.6008C71.369 17.3655 71.4004 17.3174 71.3754 17.391C71.3618 17.4312 71.3335 17.5009 71.2809 17.5876C71.2277 17.6754 71.1577 17.7669 71.0714 17.8532L65.4146 12.1964C63.8354 13.7756 63.369 15.8137 63.369 17.6008H71.369ZM71.0714 17.8532C71.0166 17.9081 70.9524 17.9599 70.8821 18.0043C70.8122 18.0484 70.7495 18.0769 70.7025 18.094C70.6095 18.1278 70.6136 18.1048 70.773 18.1048V10.1048C68.9058 10.1048 66.9478 10.6632 65.4146 12.1964L71.0714 17.8532ZM70.773 18.1048C70.9624 18.1048 70.9708 18.1319 70.8665 18.094C70.8123 18.0743 70.7358 18.0398 70.6486 17.9835C70.5606 17.9267 70.4769 17.8576 70.403 17.7798L76.203 12.2698C74.6534 10.6387 72.6225 10.1048 70.773 10.1048V18.1048ZM70.4746 17.8532C70.3883 17.7669 70.3184 17.6754 70.2651 17.5876C70.2126 17.5009 70.1842 17.4312 70.1706 17.391C70.1456 17.3174 70.177 17.3655 70.177 17.6008H78.177C78.177 15.8137 77.7106 13.7756 76.1314 12.1964L70.4746 17.8532ZM70.177 17.6008V19.9928H78.177V17.6008H70.177ZM74.177 15.9928H73.717V23.9928H74.177V15.9928ZM77.6393 20.7773C77.855 19.6989 78.2516 19.162 78.6631 18.8309L73.647 12.5988C71.5438 14.2916 70.315 16.6068 69.7947 19.2084L77.6393 20.7773ZM78.6631 18.8309C79.1359 18.4503 79.9115 18.0893 81.2767 18.0053L80.7853 10.0204C78.1638 10.1817 75.6888 10.9553 73.647 12.5988L78.6631 18.8309ZM81.35 18.0001C81.3189 18.0026 81.0872 18.0169 80.7483 17.901C80.379 17.7746 80.0255 17.5412 79.7563 17.2305L85.8018 11.9911C84.3533 10.3198 82.3761 9.89243 80.712 10.0256L81.35 18.0001ZM79.9506 17.4392C79.6164 17.1051 79.4952 16.7907 79.4629 16.6895C79.4339 16.5988 79.4632 16.6428 79.4708 16.894L87.4672 16.6517C87.425 15.2582 87.1079 13.2829 85.6074 11.7824L79.9506 17.4392ZM79.4773 17.0304C79.4862 17.1677 79.4662 17.1481 79.4993 17.0236C79.5367 16.8827 79.6252 16.6736 79.7981 16.4661L85.9439 21.5876C87.2505 20.0196 87.5659 18.1463 87.4607 16.5153L79.4773 17.0304ZM79.7136 16.5711C79.9518 16.2648 80.2063 16.1144 80.3304 16.0576C80.4356 16.0093 80.4183 16.04 80.1956 16.0662L81.1304 24.0114C82.7088 23.8257 84.6747 23.2231 86.0284 21.4826L79.7136 16.5711ZM80.3165 16.0539L79.2585 16.1459L79.9515 24.1158L81.0095 24.0238L80.3165 16.0539ZM79.2555 16.1461C76.9785 16.3459 74.6311 17.0559 72.8666 18.8204L78.5234 24.4773C78.4763 24.5244 78.7355 24.2225 79.9546 24.1155L79.2555 16.1461ZM72.8156 18.8723C71.0409 20.7128 70.453 23.0966 70.453 25.3748H78.453C78.453 24.8925 78.5155 24.6176 78.5583 24.4892C78.5953 24.3782 78.6134 24.3849 78.5744 24.4254L72.8156 18.8723ZM70.453 25.3748V33.9308H78.453V25.3748H70.453ZM70.453 33.9308C70.453 34.145 70.4233 34.185 70.4486 34.113C70.462 34.0749 70.488 34.0136 70.5337 33.9397C70.5799 33.8651 70.6377 33.7913 70.7046 33.7244L76.3614 39.3813C77.9353 37.8074 78.453 35.7864 78.453 33.9308H70.453ZM70.633 33.7978C70.7131 33.7135 70.8019 33.6413 70.8921 33.5836C70.9814 33.5267 71.0571 33.4936 71.1067 33.4759C71.2 33.4425 71.1735 33.4728 70.957 33.4728V41.4728C72.7993 41.4728 74.8637 40.9597 76.433 39.3078L70.633 33.7978ZM86.326 36.5528L83.4976 39.3812L86.326 36.5528ZM86.28 15.0248L83.4516 12.1964L83.4516 12.1964L86.28 15.0248ZM91.34 15.0248L88.44 17.7798L88.4754 17.817L88.5116 17.8532L91.34 15.0248ZM92.214 19.9928V23.9928H96.214V19.9928H92.214ZM91.754 19.9928L87.8317 19.2084L86.8748 23.9928H91.754V19.9928ZM99.068 14.0128L99.3137 18.0053L99.3504 18.003L99.387 18.0001L99.068 14.0128ZM100.816 14.6108L97.7933 17.2305L97.8867 17.3384L97.9876 17.4392L100.816 14.6108ZM101.506 16.7728L97.5079 16.894L97.5099 16.9622L97.5143 17.0304L101.506 16.7728ZM100.908 19.0268L97.8352 16.4661L97.792 16.5179L97.7506 16.5711L100.908 19.0268ZM98.7 20.0388L99.0466 24.0238L99.1071 24.0185L99.1674 24.0114L98.7 20.0388ZM97.642 20.1308L97.2955 16.1459L97.2925 16.1461L97.642 20.1308ZM93.732 21.6488L90.9036 18.8204L90.8779 18.8461L90.8527 18.8723L93.732 21.6488ZM91.57 36.5528L88.7416 33.7244L88.7054 33.7607L88.67 33.7978L91.57 36.5528ZM88.994 33.4728C88.7534 33.4728 88.6957 33.4402 88.757 33.4613C88.7904 33.4729 88.8508 33.4976 88.9264 33.5439C89.003 33.5908 89.0815 33.6515 89.1545 33.7244L83.4976 39.3812C85.0904 40.974 87.1433 41.4728 88.994 41.4728V33.4728ZM89.1545 33.7244C89.2214 33.7913 89.2792 33.8651 89.3254 33.9397C89.371 34.0136 89.3971 34.0749 89.4104 34.113C89.4357 34.185 89.406 34.145 89.406 33.9308H81.406C81.406 35.7864 81.9238 37.8074 83.4976 39.3812L89.1545 33.7244ZM89.406 33.9308V17.6008H81.406V33.9308H89.406ZM89.406 17.6008C89.406 17.3655 89.4374 17.3174 89.4125 17.391C89.3988 17.4312 89.3705 17.5009 89.318 17.5876C89.2647 17.6754 89.1948 17.7669 89.1085 17.8532L83.4516 12.1964C81.8724 13.7756 81.406 15.8137 81.406 17.6008H89.406ZM89.1085 17.8532C89.0537 17.9081 88.9894 17.9599 88.9191 18.0043C88.8493 18.0484 88.7866 18.0769 88.7395 18.094C88.6466 18.1278 88.6506 18.1048 88.81 18.1048V10.1048C86.9428 10.1048 84.9848 10.6632 83.4516 12.1964L89.1085 17.8532ZM88.81 18.1048C88.9994 18.1048 89.0078 18.1319 88.9036 18.094C88.8493 18.0743 88.7729 18.0398 88.6857 17.9835C88.5977 17.9267 88.5139 17.8576 88.44 17.7798L94.24 12.2698C92.6905 10.6387 90.6595 10.1048 88.81 10.1048V18.1048ZM88.5116 17.8532C88.4253 17.7669 88.3554 17.6754 88.3021 17.5876C88.2496 17.5009 88.2213 17.4312 88.2076 17.391C88.1826 17.3174 88.214 17.3655 88.214 17.6008H96.214C96.214 15.8137 95.7477 13.7756 94.1685 12.1964L88.5116 17.8532ZM88.214 17.6008V19.9928H96.214V17.6008H88.214ZM92.214 15.9928H91.754V23.9928H92.214V15.9928ZM95.6764 20.7773C95.8921 19.6989 96.2886 19.162 96.7001 18.8309L91.684 12.5988C89.5808 14.2916 88.352 16.6068 87.8317 19.2084L95.6764 20.7773ZM96.7001 18.8309C97.1729 18.4503 97.9486 18.0893 99.3137 18.0053L98.8224 10.0204C96.2009 10.1817 93.7259 10.9553 91.684 12.5988L96.7001 18.8309ZM99.387 18.0001C99.3559 18.0026 99.1242 18.0169 98.7853 17.901C98.416 17.7746 98.0626 17.5412 97.7933 17.2305L103.839 11.9911C102.39 10.3198 100.413 9.89243 98.7491 10.0256L99.387 18.0001ZM97.9876 17.4392C97.6534 17.1051 97.5322 16.7907 97.4999 16.6895C97.471 16.5988 97.5003 16.6428 97.5079 16.894L105.504 16.6517C105.462 15.2582 105.145 13.2829 103.644 11.7824L97.9876 17.4392ZM97.5143 17.0304C97.5232 17.1677 97.5033 17.1481 97.5363 17.0236C97.5737 16.8827 97.6622 16.6736 97.8352 16.4661L103.981 21.5876C105.288 20.0196 105.603 18.1463 105.498 16.5153L97.5143 17.0304ZM97.7506 16.5711C97.9889 16.2648 98.2434 16.1144 98.3674 16.0576C98.4726 16.0093 98.4554 16.04 98.2327 16.0662L99.1674 24.0114C100.746 23.8257 102.712 23.2231 104.065 21.4826L97.7506 16.5711ZM98.3535 16.0539L97.2955 16.1459L97.9886 24.1158L99.0466 24.0238L98.3535 16.0539ZM97.2925 16.1461C95.0155 16.3459 92.6681 17.0559 90.9036 18.8204L96.5605 24.4773C96.5133 24.5244 96.7726 24.2225 97.9916 24.1155L97.2925 16.1461ZM90.8527 18.8723C89.0779 20.7128 88.49 23.0966 88.49 25.3748H96.49C96.49 24.8925 96.5525 24.6176 96.5953 24.4892C96.6323 24.3782 96.6505 24.3849 96.6114 24.4254L90.8527 18.8723ZM88.49 25.3748V33.9308H96.49V25.3748H88.49ZM88.49 33.9308C88.49 34.145 88.4604 34.185 88.4856 34.113C88.499 34.0749 88.525 34.0136 88.5707 33.9397C88.6169 33.8651 88.6747 33.7913 88.7416 33.7244L94.3985 39.3813C95.9723 37.8074 96.49 35.7864 96.49 33.9308H88.49ZM88.67 33.7978C88.7501 33.7135 88.8389 33.6413 88.9292 33.5836C89.0184 33.5267 89.0941 33.4936 89.1437 33.4759C89.2371 33.4425 89.2105 33.4728 88.994 33.4728V41.4728C90.8363 41.4728 92.9007 40.9597 94.47 39.3078L88.67 33.7978ZM108.102 43.4068L112.068 42.8895L112.067 42.8779L112.065 42.8664L108.102 43.4068ZM108.47 41.2448L104.826 39.5952L104.817 39.6145L104.808 39.6339L108.47 41.2448ZM111.552 34.4368H115.552L107.908 32.7872L111.552 34.4368ZM111.552 37.2888L107.885 38.8874L115.552 37.2888H111.552ZM103.41 18.6128L99.6763 20.0487L99.7078 20.1308L99.743 20.2114L103.41 18.6128ZM103.088 16.4048L99.1468 15.7195L99.1342 15.7917L99.1243 15.8644L103.088 16.4048ZM104.1 14.7488L106.442 17.9915L106.457 17.9804L106.472 17.969L104.1 14.7488ZM108.47 14.7028L105.947 17.8073L106.052 17.8926L106.163 17.9707L108.47 14.7028ZM109.896 16.8648L113.618 15.4007L113.614 15.39L113.61 15.3793L109.896 16.8648ZM115.324 30.6648V34.6648H121.195L119.046 29.2007L115.324 30.6648ZM113.852 30.6648L110.145 29.1623L107.914 34.6648H113.852V30.6648ZM119.464 16.8188L115.765 15.2958L115.761 15.306L115.757 15.3163L119.464 16.8188ZM120.89 14.7028L123.196 17.9707L123.214 17.9582L123.232 17.9455L120.89 14.7028ZM124.984 14.7488L122.254 17.673L122.355 17.7667L122.461 17.8533L124.984 14.7488ZM125.858 16.3588L121.894 16.8993L121.906 16.9871L121.922 17.0744L125.858 16.3588ZM125.49 18.5668L121.858 16.8906L121.843 16.9217L121.83 16.9531L125.49 18.5668ZM114.68 43.0848L118.339 44.6994L118.34 44.6985L114.68 43.0848ZM113.116 45.2008L110.98 41.8189L110.938 41.8452L110.897 41.8726L113.116 45.2008ZM111 41.7528C110.96 41.7528 111.02 41.7476 111.146 41.7883C111.279 41.8317 111.429 41.9091 111.564 42.0211L106.479 48.1965C107.841 49.3182 109.45 49.7528 111 49.7528V41.7528ZM111.564 42.0211C111.684 42.1191 111.816 42.2671 111.919 42.4593C112.022 42.6481 112.057 42.807 112.068 42.8895L104.135 43.9242C104.351 45.5769 105.129 47.0852 106.479 48.1965L111.564 42.0211ZM112.065 42.8664C112.071 42.911 112.073 42.9497 112.072 42.9801C112.071 43.0102 112.069 43.028 112.068 43.0315C112.067 43.0378 112.076 42.9813 112.131 42.8558L104.808 39.6339C104.242 40.9208 103.926 42.3898 104.138 43.9473L112.065 42.8664ZM112.114 42.8945L115.196 36.0865L107.908 32.7872L104.826 39.5952L112.114 42.8945ZM107.552 34.4368V37.2888H115.552V34.4368H107.552ZM115.218 35.6903L107.076 17.0143L99.743 20.2114L107.885 38.8874L115.218 35.6903ZM107.143 17.1769C107.018 16.8511 107.07 16.8031 107.051 16.9453L99.1243 15.8644C98.9209 17.3559 99.1882 18.7799 99.6763 20.0487L107.143 17.1769ZM107.029 17.0902C107.013 17.1805 106.966 17.3506 106.846 17.5476C106.723 17.7481 106.573 17.8967 106.442 17.9915L101.758 11.5061C100.312 12.5499 99.4381 14.0443 99.1468 15.7195L107.029 17.0902ZM106.472 17.969C106.394 18.0267 106.323 18.0661 106.268 18.0918C106.214 18.1171 106.18 18.1267 106.175 18.1283C106.169 18.1297 106.191 18.1236 106.244 18.1172C106.298 18.1108 106.379 18.1048 106.492 18.1048V10.1048C104.957 10.1048 103.223 10.4263 101.727 11.5286L106.472 17.969ZM106.492 18.1048C106.59 18.1048 106.562 18.1172 106.45 18.0832C106.326 18.0459 106.14 17.9641 105.947 17.8073L110.992 11.5984C109.593 10.4621 107.951 10.1048 106.492 10.1048V18.1048ZM106.163 17.9707C106.026 17.874 105.941 17.7893 105.902 17.746C105.862 17.7028 105.856 17.6889 105.878 17.7217C105.899 17.7539 105.939 17.8192 105.993 17.927C106.048 18.0342 106.111 18.1736 106.182 18.3504L113.61 15.3793C113.094 14.0914 112.26 12.4824 110.776 11.4349L106.163 17.9707ZM106.173 18.329L111.601 32.129L119.046 29.2007L113.618 15.4007L106.173 18.329ZM115.324 26.6648H113.852V34.6648H115.324V26.6648ZM117.559 32.1674L123.171 18.3214L115.757 15.3163L110.145 29.1623L117.559 32.1674ZM123.162 18.3418C123.305 17.9948 123.412 17.8131 123.459 17.7432C123.48 17.712 123.475 17.7242 123.438 17.7639C123.401 17.8037 123.323 17.8814 123.196 17.9707L118.583 11.4349C117.128 12.4623 116.29 14.0206 115.765 15.2958L123.162 18.3418ZM123.232 17.9455C123.072 18.0606 122.944 18.1038 122.901 18.1152C122.867 18.1246 122.921 18.1048 123.098 18.1048V10.1048C121.627 10.1048 119.984 10.4226 118.548 11.4601L123.232 17.9455ZM123.098 18.1048C123.142 18.1048 123.05 18.1112 122.875 18.0512C122.685 17.9865 122.46 17.8649 122.254 17.673L127.713 11.8246C126.329 10.5332 124.627 10.1048 123.098 10.1048V18.1048ZM122.461 17.8533C122.315 17.7346 122.168 17.5664 122.055 17.3587C121.945 17.1558 121.906 16.9863 121.894 16.8993L129.821 15.8184C129.603 14.2219 128.849 12.7357 127.506 11.6444L122.461 17.8533ZM121.922 17.0744C121.909 17.0003 121.904 16.9331 121.904 16.8763C121.904 16.8201 121.909 16.7801 121.912 16.7592C121.919 16.7196 121.918 16.7604 121.858 16.8906L129.121 20.2431C129.738 18.9082 130.099 17.3282 129.793 15.6433L121.922 17.0744ZM121.83 16.9531L111.02 41.4711L118.34 44.6985L129.15 20.1805L121.83 16.9531ZM111.02 41.4703C110.876 41.7972 110.769 41.9611 110.727 42.0183C110.684 42.0761 110.755 41.9611 110.98 41.8189L115.252 48.5828C116.816 47.5946 117.748 46.0404 118.339 44.6994L111.02 41.4703ZM110.897 41.8726C110.959 41.8312 111.017 41.801 111.065 41.7797C111.113 41.7587 111.147 41.7485 111.163 41.7444C111.192 41.7367 111.147 41.7528 111 41.7528V49.7528C112.418 49.7528 113.957 49.4473 115.334 48.529L110.897 41.8726ZM141.889 36.5988L144.792 33.8478L141.889 36.5988ZM141.935 5.08882L139.18 2.18882L139.142 2.22414L139.106 2.26039L141.935 5.08882ZM146.581 4.76682L144.274 8.03469L144.382 8.11097L144.495 8.17995L146.581 4.76682ZM148.099 6.56082L144.573 8.44971L144.581 8.46563L144.59 8.48147L148.099 6.56082ZM158.725 25.9728V29.9728H165.474L162.233 24.0522L158.725 25.9728ZM157.161 25.9728L153.652 24.0522L150.411 29.9728H157.161V25.9728ZM167.787 6.56082L171.295 8.48147L171.304 8.46563L171.313 8.44971L167.787 6.56082ZM169.259 4.76682L171.432 8.12511L171.455 8.11022L171.477 8.09502L169.259 4.76682ZM173.813 5.08882L170.909 7.8398L170.946 7.87903L170.984 7.91725L173.813 5.08882ZM173.859 36.5988L170.955 33.8478L173.859 36.5988ZM169.029 36.5988L166.125 39.3498L166.162 39.389L166.2 39.4272L169.029 36.5988ZM168.201 15.5308V11.5308H164.201V15.5308H168.201ZM169.213 15.5308L172.705 17.4814L176.029 11.5308H169.213V15.5308ZM160.657 30.8488L164.039 32.9848L164.096 32.8936L164.149 32.7994L160.657 30.8488ZM159.461 32.1828L161.737 35.4716L161.762 35.4548L161.786 35.4378L159.461 32.1828ZM156.195 32.1368L158.52 28.8819L156.195 32.1368ZM155.045 30.8488L151.559 32.8109L151.594 32.8734L151.632 32.9346L155.045 30.8488ZM146.397 15.4848V11.4848H139.555L142.911 17.4469L146.397 15.4848ZM147.501 15.4848H151.501V11.4848H147.501V15.4848ZM146.673 36.5988L143.769 33.8478L143.73 33.8892L143.692 33.9316L146.673 36.5988ZM144.281 33.4728C144.124 33.4728 144.145 33.4502 144.273 33.4973C144.422 33.5514 144.618 33.664 144.792 33.8478L138.985 39.3498C140.501 40.95 142.485 41.4728 144.281 41.4728V33.4728ZM144.792 33.8478C144.861 33.9204 144.92 33.9988 144.966 34.0774C145.013 34.1553 145.04 34.2213 145.055 34.266C145.084 34.352 145.061 34.3355 145.061 34.1608H137.061C137.061 35.9104 137.538 37.8224 138.985 39.3498L144.792 33.8478ZM145.061 34.1608V7.52682H137.061V34.1608H145.061ZM145.061 7.52682C145.061 7.37288 145.083 7.37897 145.045 7.48516C145.025 7.53945 144.993 7.61157 144.942 7.69229C144.891 7.77355 144.83 7.85 144.763 7.91725L139.106 2.26039C137.587 3.77944 137.061 5.71942 137.061 7.52682H145.061ZM144.69 7.98882C144.636 8.03973 144.575 8.08689 144.509 8.12675C144.444 8.16638 144.386 8.1916 144.343 8.20657C144.259 8.23619 144.267 8.21482 144.419 8.21482V0.21482C142.602 0.21482 140.7 0.744154 139.18 2.18882L144.69 7.98882ZM144.419 8.21482C144.62 8.21482 144.688 8.23581 144.66 8.22849C144.624 8.2195 144.472 8.17428 144.274 8.03469L148.887 1.49895C147.453 0.486323 145.815 0.21482 144.419 0.21482V8.21482ZM144.495 8.17995C144.338 8.08437 144.288 8.01298 144.321 8.05209C144.355 8.0923 144.445 8.21081 144.573 8.44971L151.625 4.67193C150.986 3.47974 150.058 2.20385 148.666 1.35369L144.495 8.17995ZM144.59 8.48147L155.216 27.8935L162.233 24.0522L151.607 4.64017L144.59 8.48147ZM158.725 21.9728H157.161V29.9728H158.725V21.9728ZM160.669 27.8935L171.295 8.48147L164.278 4.64017L153.652 24.0522L160.669 27.8935ZM171.313 8.44971C171.45 8.19395 171.548 8.0592 171.592 8.00559C171.637 7.95103 171.591 8.02195 171.432 8.12511L167.086 1.40854C165.762 2.26505 164.876 3.52426 164.261 4.67194L171.313 8.44971ZM171.477 8.09502C171.408 8.14117 171.346 8.1734 171.296 8.195C171.247 8.21638 171.214 8.22568 171.203 8.22849C171.184 8.23328 171.247 8.21482 171.421 8.21482V0.21482C170.005 0.21482 168.438 0.506433 167.04 1.43862L171.477 8.09502ZM171.421 8.21482C171.577 8.21482 171.557 8.23739 171.428 8.19038C171.28 8.13621 171.083 8.0236 170.909 7.8398L176.716 2.33784C175.201 0.737654 173.216 0.21482 171.421 0.21482V8.21482ZM170.984 7.91725C170.917 7.84999 170.856 7.77355 170.805 7.69229C170.755 7.61157 170.722 7.53944 170.703 7.48516C170.665 7.37897 170.687 7.37288 170.687 7.52682H178.687C178.687 5.71942 178.16 3.77944 176.641 2.26039L170.984 7.91725ZM170.687 7.52682V34.1608H178.687V7.52682H170.687ZM170.687 34.1608C170.687 34.3355 170.663 34.352 170.692 34.266C170.707 34.2213 170.735 34.1553 170.781 34.0774C170.828 33.9988 170.886 33.9204 170.955 33.8478L176.762 39.3498C178.209 37.8224 178.687 35.9104 178.687 34.1608H170.687ZM170.955 33.8478C171.129 33.664 171.326 33.5514 171.474 33.4973C171.603 33.4502 171.623 33.4728 171.467 33.4728V41.4728C173.262 41.4728 175.246 40.95 176.762 39.3498L170.955 33.8478ZM171.467 33.4728C171.313 33.4728 171.319 33.4509 171.425 33.489C171.479 33.5084 171.551 33.5407 171.632 33.5913C171.713 33.6422 171.79 33.7031 171.857 33.7704L166.2 39.4272C167.719 40.9463 169.659 41.4728 171.467 41.4728V33.4728ZM171.932 33.8478C172.001 33.9204 172.06 33.9988 172.106 34.0774C172.153 34.1553 172.18 34.2213 172.195 34.266C172.224 34.352 172.201 34.3355 172.201 34.1608H164.201C164.201 35.9104 164.678 37.8224 166.125 39.3498L171.932 33.8478ZM172.201 34.1608V15.5308H164.201V34.1608H172.201ZM168.201 19.5308H169.213V11.5308H168.201V19.5308ZM165.72 13.5802L157.164 28.8982L164.149 32.7994L172.705 17.4814L165.72 13.5802ZM157.275 28.7129C157.192 28.8433 157.133 28.9164 157.103 28.9491C157.075 28.9813 157.083 28.9656 157.136 28.9279L161.786 35.4378C162.744 34.7533 163.475 33.8778 164.039 32.9848L157.275 28.7129ZM157.184 28.8941C157.669 28.5578 158.02 28.5968 157.851 28.5968V36.5968C159.03 36.5968 160.454 36.3598 161.737 35.4716L157.184 28.8941ZM157.851 28.5968C157.777 28.5968 158.103 28.5843 158.52 28.8819L153.87 35.3918C155.145 36.3027 156.575 36.5968 157.851 36.5968V28.5968ZM158.52 28.8819C158.615 28.95 158.576 28.9571 158.458 28.763L151.632 32.9346C152.188 33.8445 152.916 34.7104 153.87 35.3918L158.52 28.8819ZM158.53 28.8868L149.882 13.5228L142.911 17.4469L151.559 32.8109L158.53 28.8868ZM146.397 19.4848H147.501V11.4848H146.397V19.4848ZM143.501 15.4848V34.1608H151.501V15.4848H143.501ZM143.501 34.1608C143.501 34.3355 143.477 34.352 143.506 34.266C143.521 34.2213 143.549 34.1553 143.595 34.0774C143.642 33.9988 143.7 33.9204 143.769 33.8478L149.576 39.3498C151.023 37.8224 151.501 35.9104 151.501 34.1608H143.501ZM143.692 33.9316C143.906 33.6917 144.146 33.5574 144.311 33.4973C144.451 33.4461 144.467 33.4728 144.281 33.4728V41.4728C146.05 41.4728 148.122 40.9779 149.654 39.266L143.692 33.9316ZM182.92 36.5988L184.675 33.0046L182.92 36.5988ZM179.838 33.9768L176.509 36.1956V36.1956L179.838 33.9768ZM180.022 26.3408L182.99 29.022L183.011 28.9986L183.032 28.9748L180.022 26.3408ZM184.208 24.2708L185.016 28.1883L185.046 28.1822L185.075 28.1756L184.208 24.2708ZM194.328 23.6268H198.328V19.6268H194.328V23.6268ZM194.328 27.2148V31.2148H198.328V27.2148H194.328ZM188.118 27.4908L188.755 31.4398L188.805 31.4317L188.855 31.4223L188.118 27.4908ZM186.048 28.3188L183.326 25.3876L183.272 25.438L183.219 25.4904L186.048 28.3188ZM186.324 32.0908L183.573 34.9946L183.61 35.0298L183.648 35.064L186.324 32.0908ZM191.292 32.3208L193.326 35.7645L193.349 35.7512L193.371 35.7376L191.292 32.3208ZM192.948 30.6188L196.43 32.5871L196.448 32.5557L196.465 32.524L192.948 30.6188ZM192.626 19.9928L189.871 22.8928L189.91 22.9299L189.95 22.966L192.626 19.9928ZM186.784 19.4408L187.544 23.3679L187.591 23.3588L187.638 23.3484L186.784 19.4408ZM183.61 20.4068L182.141 16.6862L182.047 16.7234L181.954 16.7654L183.61 20.4068ZM181.816 20.6368L180.484 24.4088L180.585 24.4442L180.687 24.4743L181.816 20.6368ZM180.62 19.7168L177.19 21.7748L177.221 21.8278L177.255 21.8799L180.62 19.7168ZM180.666 16.6808L184.058 18.8008L184.086 18.7552L184.113 18.7089L180.666 16.6808ZM182.184 15.5308L183.498 19.3088L183.591 19.2763L183.683 19.2393L182.184 15.5308ZM186.232 14.3348L185.574 10.3892L185.566 10.3905L185.558 10.3919L186.232 14.3348ZM195.57 15.0708L193.87 18.6918L193.914 18.7125L193.959 18.7321L195.57 15.0708ZM199.02 18.2448L195.488 20.1233L195.497 20.1391L195.505 20.1549L199.02 18.2448ZM199.342 36.5528L196.368 33.877L199.342 36.5528ZM194.512 36.5528L191.538 39.2287L191.574 39.2687L191.612 39.3078L194.512 36.5528ZM193.684 32.2288L196.287 29.1918L189.684 23.5319V32.2288H193.684ZM194.006 32.5048L197.945 33.2L198.341 30.9528L196.609 29.4678L194.006 32.5048ZM192.81 35.2188L189.686 32.72L189.68 32.728L189.673 32.736L192.81 35.2188ZM190.556 36.9668L192.146 40.637L192.197 40.615L192.247 40.5916L190.556 36.9668ZM187.382 33.5648C186.255 33.5648 185.38 33.3491 184.675 33.0046L181.164 40.1931C183.096 41.1366 185.196 41.5648 187.382 41.5648V33.5648ZM184.675 33.0046C183.924 32.6377 183.468 32.2112 183.166 31.758L176.509 36.1956C177.679 37.9504 179.278 39.2719 181.164 40.1931L184.675 33.0046ZM183.166 31.758C182.886 31.3384 182.734 30.8746 182.734 30.2508H174.734C174.734 32.3871 175.317 34.4073 176.509 36.1956L183.166 31.758ZM182.734 30.2508C182.734 29.2872 182.971 29.0427 182.99 29.022L177.053 23.6597C175.355 25.5403 174.734 27.9024 174.734 30.2508H182.734ZM183.032 28.9748C183.088 28.9102 183.523 28.4964 185.016 28.1883L183.399 20.3534C181.028 20.8426 178.672 21.8088 177.011 23.7068L183.032 28.9748ZM185.075 28.1756C186.604 27.836 188.838 27.6268 191.89 27.6268V19.6268C188.562 19.6268 185.676 19.847 183.34 20.3661L185.075 28.1756ZM191.89 27.6268H194.328V19.6268H191.89V27.6268ZM190.328 23.6268V27.2148H198.328V23.6268H190.328ZM194.328 23.2148H191.936V31.2148H194.328V23.2148ZM191.936 23.2148C190.246 23.2148 188.701 23.3117 187.38 23.5593L188.855 31.4223C189.497 31.3019 190.497 31.2148 191.936 31.2148V23.2148ZM187.481 23.5419C186.204 23.7478 184.598 24.2061 183.326 25.3876L188.769 31.25C188.654 31.3573 188.552 31.4271 188.483 31.4686C188.415 31.5098 188.374 31.5262 188.373 31.5267C188.371 31.5273 188.4 31.5159 188.466 31.4985C188.532 31.4813 188.627 31.4604 188.755 31.4398L187.481 23.5419ZM183.219 25.4904C181.892 26.8171 181.45 28.4898 181.45 29.9748H189.45C189.45 29.9945 189.447 30.1528 189.361 30.3904C189.27 30.6437 189.109 30.914 188.876 31.1472L183.219 25.4904ZM181.45 29.9748C181.45 31.8462 182.132 33.6303 183.573 34.9946L189.075 29.187C189.17 29.2778 189.285 29.4263 189.365 29.6208C189.443 29.8094 189.45 29.9456 189.45 29.9748H181.45ZM183.648 35.064C185.232 36.49 187.196 36.9188 188.946 36.9188V28.9188C188.694 28.9188 188.611 28.8872 188.644 28.8975C188.663 28.9035 188.711 28.9209 188.778 28.9581C188.846 28.996 188.923 29.0487 188.999 29.1176L183.648 35.064ZM188.946 36.9188C190.452 36.9188 191.956 36.5744 193.326 35.7645L189.257 28.8771C189.256 28.8777 189.245 28.8845 189.211 28.8933C189.174 28.9027 189.091 28.9188 188.946 28.9188V36.9188ZM193.371 35.7376C194.649 34.9602 195.688 33.8989 196.43 32.5871L189.465 28.6506C189.409 28.7494 189.345 28.8228 189.212 28.904L193.371 35.7376ZM196.465 32.524C197.211 31.1464 197.546 29.6527 197.546 28.1348H189.546C189.546 28.4569 189.482 28.6192 189.43 28.7137L196.465 32.524ZM197.546 28.1348V22.8448H189.546V28.1348H197.546ZM197.546 22.8448C197.546 21.0597 197.165 18.697 195.301 17.0196L189.95 22.966C189.798 22.8293 189.689 22.6889 189.617 22.5702C189.546 22.4546 189.517 22.3722 189.509 22.3478C189.501 22.3246 189.512 22.3491 189.523 22.4362C189.535 22.523 189.546 22.6565 189.546 22.8448H197.546ZM195.381 17.0928C193.638 15.437 191.296 15.1188 189.498 15.1188V23.1188C189.736 23.1188 189.921 23.1307 190.061 23.1469C190.201 23.1631 190.279 23.1818 190.307 23.1898C190.371 23.2076 190.151 23.1595 189.871 22.8928L195.381 17.0928ZM189.498 15.1188C188.329 15.1188 187.134 15.2696 185.929 15.5332L187.638 23.3484C188.396 23.1827 189.01 23.1188 189.498 23.1188V15.1188ZM186.023 15.5137C184.772 15.7559 183.473 16.1605 182.141 16.6862L185.078 24.1274C186.077 23.7331 186.893 23.4938 187.544 23.3679L186.023 15.5137ZM181.954 16.7654C181.835 16.8196 182.256 16.5969 182.944 16.7994L180.687 24.4743C182.418 24.9834 184.035 24.6073 185.265 24.0483L181.954 16.7654ZM183.147 16.8649C183.246 16.8997 183.397 16.9697 183.564 17.0983C183.735 17.2293 183.878 17.3878 183.984 17.5538L177.255 21.8799C178.052 23.12 179.199 23.9553 180.484 24.4088L183.147 16.8649ZM184.05 17.6588C184.085 17.7177 184.128 17.8064 184.16 17.9208C184.192 18.036 184.206 18.1478 184.206 18.2448H176.206C176.206 19.5129 176.552 20.7121 177.19 21.7748L184.05 17.6588ZM184.206 18.2448C184.206 18.3448 184.191 18.4568 184.158 18.5685C184.126 18.6789 184.085 18.7575 184.058 18.8008L177.274 14.5608C176.59 15.6551 176.206 16.9061 176.206 18.2448H184.206ZM184.113 18.7089C183.989 18.9209 183.833 19.0826 183.691 19.1907C183.557 19.2921 183.473 19.3175 183.498 19.3088L180.869 11.7528C179.486 12.2342 178.111 13.1345 177.218 14.6527L184.113 18.7089ZM183.683 19.2393C184.914 18.7417 185.984 18.435 186.905 18.2778L185.558 10.3919C183.965 10.664 182.336 11.1546 180.684 11.8224L183.683 19.2393ZM186.889 18.2804C188.005 18.0945 188.962 18.0128 189.774 18.0128V10.0128C188.439 10.0128 187.035 10.1458 185.574 10.3892L186.889 18.2804ZM189.774 18.0128C191.778 18.0128 193.075 18.3184 193.87 18.6918L197.269 11.4499C195.059 10.4125 192.492 10.0128 189.774 10.0128V18.0128ZM193.959 18.7321C194.693 19.0552 195.155 19.4971 195.488 20.1233L202.551 16.3664C201.351 14.1098 199.513 12.4358 197.181 11.4096L193.959 18.7321ZM195.505 20.1549C195.852 20.7937 196.17 21.8983 196.17 23.7188H204.17C204.17 21.0621 203.72 18.5172 202.534 16.3348L195.505 20.1549ZM196.17 23.7188V33.9308H204.17V23.7188H196.17ZM196.17 33.9308C196.17 34.1827 196.138 34.2653 196.148 34.2328C196.154 34.2137 196.172 34.1653 196.209 34.0983C196.247 34.0303 196.299 33.9536 196.368 33.877L202.315 39.2287C203.741 37.6443 204.17 35.6808 204.17 33.9308H196.17ZM196.368 33.877C196.529 33.6981 196.725 33.5742 196.894 33.5094C197.042 33.4524 197.085 33.4728 196.95 33.4728V41.4728C198.806 41.4728 200.814 40.8966 202.315 39.2287L196.368 33.877ZM196.95 33.4728C196.817 33.4728 196.845 33.4531 196.97 33.5004C197.034 33.5243 197.111 33.5614 197.194 33.6159C197.276 33.6706 197.35 33.7331 197.412 33.7978L191.612 39.3078C193.119 40.8942 195.083 41.4728 196.95 41.4728V33.4728ZM197.485 33.877C197.554 33.9536 197.606 34.0303 197.644 34.0983C197.682 34.1653 197.699 34.2137 197.705 34.2328C197.715 34.2653 197.684 34.1827 197.684 33.9308H189.684C189.684 35.6808 190.112 37.6443 191.538 39.2287L197.485 33.877ZM197.684 33.9308V32.2288H189.684V33.9308H197.684ZM191.08 35.2659L191.402 35.5419L196.609 29.4678L196.287 29.1918L191.08 35.2659ZM190.066 31.8097C189.99 32.2455 189.848 32.5174 189.686 32.72L195.933 37.7176C196.998 36.3869 197.654 34.8495 197.945 33.2L190.066 31.8097ZM189.673 32.736C189.508 32.9452 189.267 33.154 188.864 33.3421L192.247 40.5916C193.684 39.921 194.946 38.9645 195.946 37.7016L189.673 32.736ZM188.965 33.2966C188.634 33.44 188.134 33.5648 187.382 33.5648V41.5648C189.021 41.5648 190.637 41.291 192.146 40.637L188.965 33.2966ZM210.181 36.5068L208.392 40.0845L208.407 40.0922L208.423 40.0997L210.181 36.5068ZM207.007 33.4248L203.429 35.2137L203.445 35.2459L203.462 35.2778L207.007 33.4248ZM205.995 19.6708H209.995V15.6708H205.995V19.6708ZM202.039 18.9808L199.211 21.8092L199.256 21.8549L199.303 21.899L202.039 18.9808ZM202.039 15.1628L204.768 18.0871L204.775 18.081L202.039 15.1628ZM205.995 14.4728V18.4728H209.995V14.4728H205.995ZM206.915 8.35482L209.67 11.2548L209.707 11.2195L209.743 11.1832L206.915 8.35482ZM212.067 8.35482L209.167 11.1098L209.202 11.147L209.239 11.1833L212.067 8.35482ZM212.941 14.4728H208.941V18.4728H212.941V14.4728ZM219.289 15.1628L216.461 17.9912L216.509 18.04L216.56 18.087L219.289 15.1628ZM212.941 19.6708V15.6708H208.941V19.6708H212.941ZM213.815 30.9408L210.849 33.6245L210.883 33.6624L210.918 33.6994L213.815 30.9408ZM218.001 31.7688L218.9 35.6664V35.6664L218.001 31.7688ZM219.105 31.5848L218.82 27.595L218.781 27.5977L218.743 27.6012L219.105 31.5848ZM220.163 31.9988L217.19 34.6747L217.26 34.7529L217.335 34.8272L220.163 31.9988ZM220.209 35.8168L223.864 37.4414V37.4414L220.209 35.8168ZM218.921 37.0128L220.357 40.7462L220.382 40.7366L220.407 40.7267L218.921 37.0128ZM217.265 37.3808L216.748 33.4144L216.648 33.4274L216.549 33.4453L217.265 37.3808ZM215.517 33.5648C213.824 33.5648 212.688 33.2801 211.939 32.914L208.423 40.0997C210.557 41.1442 212.978 41.5648 215.517 41.5648V33.5648ZM211.97 32.9291C211.283 32.5854 210.853 32.1479 210.552 31.5718L203.462 35.2778C204.572 37.4004 206.258 39.0176 208.392 40.0845L211.97 32.9291ZM210.585 31.636C210.27 31.0057 209.995 29.9658 209.995 28.3188H201.995C201.995 30.7812 202.395 33.1453 203.429 35.2137L210.585 31.636ZM209.995 28.3188V19.6708H201.995V28.3188H209.995ZM205.995 15.6708H204.063V23.6708H205.995V15.6708ZM204.063 15.6708C203.986 15.6708 204.05 15.66 204.204 15.7123C204.371 15.7695 204.581 15.881 204.775 16.0627L199.303 21.899C200.724 23.2309 202.48 23.6708 204.063 23.6708V15.6708ZM204.867 16.1524C205.061 16.3459 205.199 16.5742 205.278 16.79C205.352 16.9911 205.349 17.112 205.349 17.0948H197.349C197.349 18.6985 197.838 20.4365 199.211 21.8092L204.867 16.1524ZM205.349 17.0948C205.349 17.0117 205.361 17.109 205.289 17.3132C205.208 17.5394 205.045 17.8288 204.768 18.087L199.31 12.2386C197.777 13.6693 197.349 15.5462 197.349 17.0948H205.349ZM204.775 18.081C204.581 18.2626 204.371 18.3742 204.204 18.4314C204.05 18.4836 203.986 18.4728 204.063 18.4728V10.4728C202.48 10.4728 200.724 10.9128 199.303 12.2447L204.775 18.081ZM204.063 18.4728H205.995V10.4728H204.063V18.4728ZM209.995 14.4728V10.9768H201.995V14.4728H209.995ZM209.995 10.9768C209.995 10.7338 210.028 10.6894 209.999 10.7717C209.984 10.8164 209.952 10.8913 209.895 10.9824C209.836 11.0748 209.761 11.1686 209.67 11.2548L204.16 5.45482C202.488 7.04297 201.995 9.14107 201.995 10.9768H209.995ZM209.743 11.1832C209.683 11.2441 209.614 11.299 209.541 11.3443C209.469 11.3893 209.407 11.4166 209.364 11.4318C209.282 11.4613 209.304 11.4348 209.491 11.4348V3.43482C207.63 3.43482 205.641 3.97238 204.087 5.5264L209.743 11.1832ZM209.491 11.4348C209.708 11.4348 209.734 11.4651 209.641 11.4318C209.591 11.4141 209.515 11.381 209.426 11.324C209.336 11.2664 209.247 11.1941 209.167 11.1098L214.967 5.59983C213.398 3.94791 211.333 3.43482 209.491 3.43482V11.4348ZM209.239 11.1833C209.146 11.0906 209.073 10.9941 209.019 10.9044C208.966 10.8162 208.94 10.7475 208.928 10.7122C208.907 10.6498 208.941 10.7156 208.941 10.9768H216.941C216.941 9.19491 216.493 7.12378 214.895 5.52639L209.239 11.1833ZM208.941 10.9768V14.4728H216.941V10.9768H208.941ZM212.941 18.4728H217.311V10.4728H212.941V18.4728ZM217.311 18.4728C217.391 18.4728 217.31 18.4844 217.132 18.4221C216.936 18.3536 216.687 18.2179 216.461 17.9912L222.117 12.3344C220.691 10.9075 218.879 10.4728 217.311 10.4728V18.4728ZM216.56 18.087C216.283 17.8288 216.12 17.5394 216.04 17.3132C215.967 17.109 215.979 17.0117 215.979 17.0948H223.979C223.979 15.5462 223.551 13.6693 222.018 12.2386L216.56 18.087ZM215.979 17.0948C215.979 17.112 215.976 16.9911 216.05 16.79C216.129 16.5742 216.267 16.3459 216.461 16.1524L222.117 21.8092C223.49 20.4365 223.979 18.6985 223.979 17.0948H215.979ZM216.461 16.1524C216.687 15.9258 216.936 15.79 217.132 15.7215C217.31 15.6593 217.391 15.6708 217.311 15.6708V23.6708C218.879 23.6708 220.691 23.2361 222.117 21.8092L216.461 16.1524ZM217.311 15.6708H212.941V23.6708H217.311V15.6708ZM208.941 19.6708V28.0428H216.941V19.6708H208.941ZM208.941 28.0428C208.941 29.854 209.342 31.959 210.849 33.6245L216.781 28.2572C216.86 28.3444 216.914 28.4262 216.948 28.4891C216.981 28.5504 216.991 28.5847 216.989 28.5784C216.987 28.5711 216.974 28.5267 216.963 28.4357C216.951 28.3447 216.941 28.2156 216.941 28.0428H208.941ZM210.918 33.6994C212.587 35.4512 214.828 35.9068 216.713 35.9068V27.9068C216.544 27.9068 216.425 27.8964 216.348 27.8856C216.272 27.8748 216.248 27.8651 216.264 27.8706C216.282 27.8765 216.343 27.8988 216.428 27.9511C216.516 28.0047 216.615 28.0809 216.712 28.1822L210.918 33.6994ZM216.713 35.9068C217.439 35.9068 218.173 35.8343 218.9 35.6664L217.102 27.8713C217.032 27.8874 216.907 27.9068 216.713 27.9068V35.9068ZM218.9 35.6664C219.157 35.6071 219.343 35.5797 219.467 35.5684L218.743 27.6012C218.192 27.6513 217.642 27.7465 217.102 27.8713L218.9 35.6664ZM219.39 35.5747C219.093 35.5959 218.683 35.5659 218.234 35.3903C217.78 35.2125 217.431 34.9421 217.19 34.6747L223.136 29.323C221.994 28.0541 220.418 27.4808 218.82 27.595L219.39 35.5747ZM217.335 34.8272C216.989 34.4813 216.801 34.1429 216.707 33.9364C216.612 33.7284 216.576 33.5792 216.567 33.535C216.551 33.4618 216.577 33.5491 216.577 33.8848H224.577C224.577 33.2392 224.535 32.5215 224.381 31.8197C224.243 31.1945 223.916 30.0954 222.991 29.1704L217.335 34.8272ZM216.577 33.8848C216.577 34.1806 216.528 34.2507 216.554 34.1923L223.864 37.4414C224.381 36.279 224.577 35.061 224.577 33.8848H216.577ZM216.554 34.1923C216.644 33.9898 216.787 33.7788 216.981 33.5986C217.17 33.4234 217.343 33.3358 217.435 33.2989L220.407 40.7267C221.889 40.134 223.154 39.0393 223.864 37.4414L216.554 34.1923ZM217.485 33.2794C217.519 33.2665 217.481 33.2839 217.34 33.3151C217.205 33.3451 217.011 33.3801 216.748 33.4144L217.782 41.3472C218.624 41.2375 219.532 41.0636 220.357 40.7462L217.485 33.2794ZM216.549 33.4453C216.026 33.5406 215.694 33.5648 215.517 33.5648V41.5648C216.321 41.5648 217.155 41.4664 217.981 41.3163L216.549 33.4453ZM226.438 36.1388L224.531 39.6549L224.566 39.6741L224.602 39.6925L226.438 36.1388ZM222.252 31.9988L218.75 33.9311L222.252 31.9988ZM224 17.1408L221.256 14.2305L221.235 14.2503L221.214 14.2705L224 17.1408ZM227.864 14.8408L229.175 18.6198L229.209 18.608L229.243 18.5955L227.864 14.8408ZM235.914 14.3808L235.023 18.2803L235.076 18.2924L235.13 18.3031L235.914 14.3808ZM239.088 15.5308L237.217 19.066L237.33 19.1259L237.447 19.1785L239.088 15.5308ZM240.33 16.7268L236.631 18.2498L236.687 18.385L236.752 18.5157L240.33 16.7268ZM240.606 18.2908L244.579 18.7582L244.58 18.7454L244.582 18.7325L240.606 18.2908ZM240.008 19.7168L236.863 17.2455L236.85 17.2617L236.838 17.278L240.008 19.7168ZM238.812 20.5448L239.782 24.4254L239.895 24.3973L240.005 24.3627L238.812 20.5448ZM237.156 20.2688L235.152 23.7305L235.258 23.7918L235.367 23.8465L237.156 20.2688ZM235.316 19.5328L234.346 23.4134L234.368 23.4188L234.39 23.424L235.316 19.5328ZM231.13 19.7628L232.588 23.4878L232.657 23.4607L232.725 23.4311L231.13 19.7628ZM229.336 21.0048L226.346 18.3474L226.342 18.3528L226.337 18.3583L229.336 21.0048ZM228.232 22.9828L224.452 21.6744L224.429 21.7401L224.409 21.8065L228.232 22.9828ZM229.336 30.5268L226.276 33.1034L226.313 33.1469L226.351 33.1893L229.336 30.5268ZM235.316 32.0448L236.101 35.9671L236.194 35.9485L236.286 35.9254L235.316 32.0448ZM237.156 31.3088L235.367 27.7311L235.297 27.7662L235.228 27.804L237.156 31.3088ZM238.812 31.0788L240.005 27.2609H240.005L238.812 31.0788ZM239.962 31.9528L236.597 34.1159L236.689 34.2579L236.792 34.3917L239.962 31.9528ZM240.468 33.3788L236.474 33.6007L236.481 33.7238L236.495 33.8462L240.468 33.3788ZM240.192 34.9428L236.573 33.2396L236.549 33.2893L236.527 33.3395L240.192 34.9428ZM238.996 36.0928L237.284 32.4779L237.245 32.4961L237.207 32.5151L238.996 36.0928ZM235.868 37.1968L235.061 33.279L235.007 33.2903L234.952 33.3032L235.868 37.1968ZM232.878 33.5648C230.946 33.5648 229.451 33.193 228.274 32.5851L224.602 39.6925C227.106 40.986 229.903 41.5648 232.878 41.5648V33.5648ZM228.345 32.6227C227.199 32.0008 226.361 31.1663 225.754 30.0665L218.75 33.9311C220.106 36.3887 222.059 38.3141 224.531 39.6549L228.345 32.6227ZM225.754 30.0665C225.157 28.9838 224.78 27.5737 224.78 25.6968H216.78C216.78 28.6653 217.384 31.4565 218.75 33.9311L225.754 30.0665ZM224.78 25.6968C224.78 24.2938 224.994 23.1647 225.344 22.2514L217.873 19.3902C217.118 21.3596 216.78 23.4812 216.78 25.6968H224.78ZM225.344 22.2514C225.701 21.3188 226.186 20.593 226.786 20.0111L221.214 14.2705C219.728 15.7126 218.62 17.4401 217.873 19.3902L225.344 22.2514ZM226.744 20.0512C227.375 19.4562 228.164 18.9707 229.175 18.6198L226.553 11.0618C224.559 11.7536 222.772 12.8014 221.256 14.2305L226.744 20.0512ZM229.243 18.5955C230.244 18.2281 231.439 18.0128 232.878 18.0128V10.0128C230.637 10.0128 228.49 10.3496 226.485 11.0861L229.243 18.5955ZM232.878 18.0128C233.486 18.0128 234.197 18.0915 235.023 18.2803L236.805 10.4814C235.485 10.1795 234.171 10.0128 232.878 10.0128V18.0128ZM235.13 18.3031C235.795 18.4363 236.489 18.6809 237.217 19.066L240.96 11.9957C239.602 11.2768 238.179 10.7547 236.699 10.4585L235.13 18.3031ZM237.447 19.1785C237.404 19.1594 237.259 19.0865 237.084 18.9181C236.9 18.7412 236.739 18.5111 236.631 18.2498L244.029 15.2038C243.352 13.5599 242.084 12.4925 240.73 11.8831L237.447 19.1785ZM236.752 18.5157C236.709 18.4284 236.667 18.314 236.644 18.181C236.621 18.0483 236.621 17.9332 236.631 17.8491L244.582 18.7325C244.727 17.4243 244.502 16.1273 243.908 14.938L236.752 18.5157ZM236.633 17.8235C236.646 17.7197 236.674 17.6049 236.722 17.4914C236.769 17.3789 236.823 17.2965 236.863 17.2455L243.153 22.1881C243.927 21.2041 244.428 20.0411 244.579 18.7582L236.633 17.8235ZM236.838 17.278C236.927 17.1618 237.049 17.0402 237.202 16.9341C237.355 16.8284 237.502 16.7636 237.619 16.7269L240.005 24.3627C241.263 23.9698 242.359 23.2216 243.179 22.1557L236.838 17.278ZM237.842 16.6643C238.562 16.4842 239.009 16.7233 238.945 16.6911L235.367 23.8465C236.529 24.4276 238.081 24.8508 239.782 24.4254L237.842 16.6643ZM239.16 16.8071C238.247 16.2784 237.271 15.8865 236.243 15.6416L234.39 23.424C234.649 23.4858 234.9 23.5846 235.152 23.7305L239.16 16.8071ZM236.286 15.6523C235.401 15.4308 234.49 15.3028 233.568 15.3028V23.3028C233.75 23.3028 234.005 23.3281 234.346 23.4134L236.286 15.6523ZM233.568 15.3028C232.205 15.3028 230.832 15.5305 229.535 16.0945L232.725 23.4311C232.838 23.3818 233.091 23.3028 233.568 23.3028V15.3028ZM229.673 16.0379C228.395 16.5378 227.267 17.3113 226.346 18.3474L232.326 23.6623C232.386 23.5943 232.455 23.5399 232.588 23.4878L229.673 16.0379ZM226.337 18.3583C225.467 19.3444 224.863 20.487 224.452 21.6744L232.012 24.2913C232.153 23.884 232.286 23.7079 232.335 23.6513L226.337 18.3583ZM224.409 21.8065C224.021 23.0662 223.864 24.3965 223.864 25.7428H231.864C231.864 25.0038 231.952 24.4941 232.055 24.1592L224.409 21.8065ZM223.864 25.7428C223.864 28.3971 224.513 31.0093 226.276 33.1034L232.396 27.9503C232.197 27.7137 231.864 27.1365 231.864 25.7428H223.864ZM226.351 33.1893C228.266 35.337 230.855 36.2288 233.568 36.2288V28.2288C232.662 28.2288 232.43 27.986 232.321 27.8644L226.351 33.1893ZM233.568 36.2288C234.416 36.2288 235.262 36.1348 236.101 35.9671L234.532 28.1225C234.143 28.2002 233.825 28.2288 233.568 28.2288V36.2288ZM236.286 35.9254C237.267 35.6802 238.201 35.2994 239.084 34.8137L235.228 27.804C234.885 27.9929 234.592 28.1028 234.346 28.1643L236.286 35.9254ZM238.945 34.8865C238.944 34.8869 238.914 34.9022 238.854 34.9216C238.795 34.9413 238.702 34.9664 238.58 34.9833C238.322 35.0192 237.983 35.0106 237.619 34.8967L240.005 27.2609C238.233 26.7072 236.589 27.1204 235.367 27.7311L238.945 34.8865ZM237.619 34.8967C237.452 34.8445 237.249 34.7504 237.047 34.597C236.845 34.4433 236.697 34.2705 236.597 34.1159L243.327 29.7898C242.539 28.565 241.384 27.6919 240.005 27.2609L237.619 34.8967ZM236.792 34.3917C236.688 34.2568 236.605 34.1035 236.549 33.946C236.494 33.7916 236.478 33.6691 236.474 33.6007L244.462 33.1569C244.391 31.8833 243.979 30.6149 243.133 29.514L236.792 34.3917ZM236.495 33.8462C236.48 33.7165 236.485 33.5855 236.506 33.4657C236.527 33.3484 236.558 33.2713 236.573 33.2396L243.811 36.646C244.343 35.5167 244.598 34.2467 244.441 32.9115L236.495 33.8462ZM236.527 33.3395C236.638 33.088 236.793 32.8752 236.96 32.715C237.119 32.5621 237.248 32.4949 237.284 32.4779L240.708 39.7078C241.977 39.1069 243.18 38.0929 243.857 36.5461L236.527 33.3395ZM237.207 32.5151C236.447 32.8955 235.733 33.1408 235.061 33.279L236.675 41.1147C238.089 40.8235 239.46 40.3329 240.785 39.6705L237.207 32.5151ZM234.952 33.3032C234.172 33.4866 233.484 33.5648 232.878 33.5648V41.5648C234.173 41.5648 235.479 41.3977 236.784 41.0905L234.952 33.3032ZM243.805 36.5528L240.905 39.3078L240.94 39.345L240.976 39.3812L243.805 36.5528ZM243.805 5.13482L246.633 7.96325L246.633 7.96325L243.805 5.13482ZM248.957 5.13482L246.057 7.88982L246.128 7.96418L246.202 8.03482L248.957 5.13482ZM249.877 18.7048V22.7048H253.877V18.7048H249.877ZM249.233 18.7048L245.612 17.0052L242.937 22.7048H249.233V18.7048ZM252.361 15.2548L254.362 18.7183L254.374 18.7114L254.386 18.7045L252.361 15.2548ZM261.607 15.0708L259.536 18.4928L259.569 18.513L259.603 18.5325L261.607 15.0708ZM264.229 18.1988L260.532 19.7259L260.538 19.7403L260.544 19.7547L264.229 18.1988ZM264.183 36.5528L261.354 33.7244L261.318 33.7607L261.283 33.7978L264.183 36.5528ZM259.031 36.5528L256.131 39.3078L256.166 39.345L256.202 39.3812L259.031 36.5528ZM257.283 20.4528L254.133 22.9181L254.192 22.9942L254.256 23.0673L257.283 20.4528ZM251.165 20.7748L248.289 17.9947L248.265 18.0199L248.241 18.0455L251.165 20.7748ZM246.427 33.4728C246.213 33.4728 246.173 33.4431 246.245 33.4684C246.283 33.4818 246.344 33.5078 246.418 33.5535C246.493 33.5997 246.566 33.6575 246.633 33.7244L240.976 39.3812C242.55 40.9551 244.571 41.4728 246.427 41.4728V33.4728ZM246.705 33.7978C246.773 33.8699 246.829 33.9456 246.871 34.0174C246.913 34.0883 246.935 34.1435 246.944 34.1724C246.962 34.2251 246.931 34.1639 246.931 33.9308H238.931C238.931 35.7329 239.403 37.7268 240.905 39.3078L246.705 33.7978ZM246.931 33.9308V7.75682H238.931V33.9308H246.931ZM246.931 7.75682C246.931 7.49555 246.965 7.42978 246.944 7.49223C246.932 7.52746 246.905 7.59616 246.852 7.68443C246.799 7.77413 246.726 7.87062 246.633 7.96325L240.976 2.30639C239.379 3.90378 238.931 5.97491 238.931 7.75682H246.931ZM246.633 7.96325C246.566 8.03015 246.493 8.08794 246.418 8.13413C246.344 8.17982 246.283 8.20585 246.245 8.21922C246.173 8.24451 246.213 8.21482 246.427 8.21482V0.21482C244.571 0.21482 242.55 0.732565 240.976 2.3064L246.633 7.96325ZM246.427 8.21482C246.616 8.21482 246.625 8.24191 246.52 8.20399C246.466 8.18425 246.39 8.14977 246.303 8.09351C246.215 8.03674 246.131 7.96758 246.057 7.88982L251.857 2.37983C250.307 0.748692 248.276 0.21482 246.427 0.21482V8.21482ZM246.202 8.03482C246.111 7.94856 246.036 7.8548 245.977 7.76242C245.92 7.6713 245.888 7.59644 245.872 7.55167C245.844 7.46939 245.877 7.51382 245.877 7.75682H253.877C253.877 5.92107 253.384 3.82297 251.712 2.23482L246.202 8.03482ZM245.877 7.75682V18.7048H253.877V7.75682H245.877ZM249.877 14.7048H249.233V22.7048H249.877V14.7048ZM252.854 20.4045C253.227 19.6087 253.72 19.0892 254.362 18.7183L250.36 11.7914C248.242 13.0151 246.649 14.7956 245.612 17.0052L252.854 20.4045ZM254.386 18.7045C255.129 18.268 256.014 18.0128 257.145 18.0128V10.0128C254.719 10.0128 252.414 10.5856 250.336 11.8052L254.386 18.7045ZM257.145 18.0128C258.457 18.0128 259.168 18.2704 259.536 18.4928L263.678 11.6488C261.715 10.4606 259.451 10.0128 257.145 10.0128V18.0128ZM259.603 18.5325C259.906 18.7081 260.238 19.0149 260.532 19.7259L267.926 16.6718C267.054 14.5615 265.638 12.7828 263.611 11.6091L259.603 18.5325ZM260.544 19.7547C260.849 20.4779 261.103 21.6632 261.103 23.4888H269.103C269.103 21.0211 268.774 18.6798 267.914 16.6429L260.544 19.7547ZM261.103 23.4888V33.9308H269.103V23.4888H261.103ZM261.103 33.9308C261.103 34.145 261.073 34.185 261.098 34.113C261.112 34.0749 261.138 34.0136 261.184 33.9397C261.23 33.8651 261.288 33.7913 261.354 33.7244L267.011 39.3812C268.585 37.8074 269.103 35.7864 269.103 33.9308H261.103ZM261.283 33.7978C261.363 33.7135 261.452 33.6413 261.542 33.5836C261.631 33.5267 261.707 33.4936 261.757 33.4759C261.85 33.4425 261.823 33.4728 261.607 33.4728V41.4728C263.449 41.4728 265.514 40.9597 267.083 39.3078L261.283 33.7978ZM261.607 33.4728C261.42 33.4728 261.398 33.4464 261.48 33.4759C261.523 33.4911 261.585 33.5184 261.657 33.5633C261.729 33.6087 261.798 33.6635 261.859 33.7244L256.202 39.3812C257.756 40.9353 259.746 41.4728 261.607 41.4728V33.4728ZM261.931 33.7978C261.999 33.8699 262.055 33.9456 262.097 34.0174C262.139 34.0883 262.16 34.1435 262.17 34.1724C262.188 34.2251 262.157 34.1639 262.157 33.9308H254.157C254.157 35.7329 254.629 37.7268 256.131 39.3078L261.931 33.7978ZM262.157 33.9308V23.8108H254.157V33.9308H262.157ZM262.157 23.8108C262.157 21.9425 261.846 19.6165 260.31 17.8383L254.256 23.0673C254.045 22.8239 254.032 22.6693 254.067 22.8059C254.103 22.9443 254.157 23.258 254.157 23.8108H262.157ZM260.433 17.9876C258.905 16.0357 256.7 15.3948 254.707 15.3948V23.3948C254.897 23.3948 254.864 23.4246 254.705 23.3594C254.623 23.3256 254.52 23.2715 254.411 23.1899C254.302 23.1079 254.208 23.0141 254.133 22.9181L260.433 17.9876ZM254.707 15.3948C252.328 15.3948 250.047 16.1759 248.289 17.9947L254.041 23.5549C254.089 23.5053 254.122 23.4855 254.17 23.4669C254.229 23.4439 254.389 23.3948 254.707 23.3948V15.3948ZM248.241 18.0455C246.546 19.8608 245.877 22.1416 245.877 24.4548H253.877C253.877 23.7014 254.066 23.5289 254.089 23.5041L248.241 18.0455ZM245.877 24.4548V33.9308H253.877V24.4548H245.877ZM245.877 33.9308C245.877 34.2087 245.842 34.2918 245.857 34.2452C245.878 34.1805 245.956 33.9949 246.149 33.7964C246.345 33.5956 246.542 33.5008 246.641 33.4669C246.719 33.4401 246.671 33.4728 246.427 33.4728V41.4728C248.221 41.4728 250.294 41.0061 251.88 39.3783C253.446 37.7701 253.877 35.702 253.877 33.9308H245.877ZM271.07 26.4328L274.001 23.711L271.07 26.4328ZM270.334 24.5468L266.352 24.9195L266.355 24.954L266.359 24.9885L270.334 24.5468ZM268.862 8.81482L272.845 8.44218L272.842 8.40761L272.838 8.3731L268.862 8.81482ZM269.644 5.50282L272.745 8.02951L272.768 8.00201L272.79 7.97411L269.644 5.50282ZM275.716 5.50282L272.571 7.97411L272.593 8.00201L272.615 8.02951L275.716 5.50282ZM276.498 8.81482L272.523 8.3731L272.519 8.40761L272.516 8.44218L276.498 8.81482ZM275.026 24.5468L279.002 24.9885L279.006 24.954L279.009 24.9195L275.026 24.5468ZM274.29 26.4328L271.359 23.711L271.305 23.7693L271.253 23.8297L274.29 26.4328ZM269.782 36.1848L266.894 38.9524L266.924 38.9832L266.954 39.0132L269.782 36.1848ZM269.782 30.5728L272.611 33.4012L269.782 30.5728ZM275.578 30.5728L272.63 33.2757L272.688 33.3398L272.75 33.4012L275.578 30.5728ZM275.578 36.1848L272.69 33.4172L272.66 33.4492L272.63 33.4819L275.578 36.1848ZM272.726 23.0768C272.777 23.0768 272.968 23.0846 273.233 23.1878C273.514 23.2971 273.785 23.4777 274.001 23.711L268.139 29.1546C269.447 30.5629 271.154 31.0768 272.726 31.0768V23.0768ZM274.001 23.711C274.192 23.9167 274.281 24.101 274.314 24.1852C274.343 24.2615 274.326 24.2498 274.31 24.1051L266.359 24.9885C266.507 26.3205 266.957 27.8811 268.139 29.1546L274.001 23.711ZM274.317 24.1742L272.845 8.44218L264.88 9.18746L266.352 24.9195L274.317 24.1742ZM272.838 8.3731C272.801 8.03968 272.831 7.89029 272.836 7.87099C272.838 7.86336 272.834 7.88248 272.816 7.91856C272.798 7.95544 272.774 7.99439 272.745 8.02951L266.543 2.97613C265.004 4.86519 264.652 7.14432 264.887 9.25655L272.838 8.3731ZM272.79 7.97411C272.751 8.02296 272.697 8.07808 272.63 8.12895C272.563 8.17956 272.503 8.21074 272.463 8.2275C272.386 8.25957 272.443 8.21482 272.726 8.21482V0.21482C270.474 0.21482 268.127 0.959446 266.499 3.03153L272.79 7.97411ZM272.726 8.21482C272.956 8.21482 272.977 8.25215 272.88 8.21047C272.832 8.18964 272.771 8.15602 272.708 8.10765C272.646 8.05936 272.6 8.01088 272.571 7.97411L278.862 3.03153C277.269 1.00485 274.989 0.21482 272.726 0.21482V8.21482ZM272.615 8.02951C272.587 7.99439 272.562 7.95544 272.544 7.91856C272.527 7.88248 272.523 7.86336 272.525 7.87099C272.529 7.89029 272.56 8.03968 272.523 8.3731L280.474 9.25655C280.709 7.14432 280.356 4.86519 278.817 2.97613L272.615 8.02951ZM272.516 8.44218L271.044 24.1742L279.009 24.9195L280.481 9.18746L272.516 8.44218ZM271.051 24.1051C271.035 24.2498 271.017 24.2615 271.047 24.1852C271.08 24.101 271.168 23.9167 271.359 23.711L277.221 29.1546C278.404 27.8811 278.854 26.3205 279.002 24.9885L271.051 24.1051ZM271.253 23.8297C271.479 23.5662 271.775 23.351 272.1 23.2171C272.408 23.0905 272.642 23.0768 272.726 23.0768V31.0768C274.321 31.0768 276.052 30.5243 277.327 29.036L271.253 23.8297ZM272.726 33.2888C272.512 33.2888 272.447 33.2571 272.475 33.2675C272.488 33.2724 272.513 33.2836 272.543 33.3031C272.574 33.3226 272.597 33.3424 272.611 33.3564L266.954 39.0132C268.573 40.6322 270.643 41.2888 272.726 41.2888V33.2888ZM272.67 33.4172C272.678 33.4249 272.692 33.4419 272.708 33.467C272.724 33.4922 272.734 33.5145 272.739 33.5286C272.744 33.542 272.741 33.5376 272.736 33.509C272.731 33.4795 272.724 33.4226 272.724 33.3328H264.724C264.724 35.3702 265.372 37.3642 266.894 38.9524L272.67 33.4172ZM272.724 33.3328C272.724 33.1817 272.747 33.1628 272.724 33.2236C272.713 33.2522 272.696 33.2877 272.672 33.3242C272.648 33.3607 272.625 33.3866 272.611 33.4012L266.954 27.7444C265.393 29.3051 264.724 31.296 264.724 33.3328H272.724ZM272.611 33.4012C272.597 33.4153 272.574 33.435 272.543 33.4545C272.513 33.474 272.488 33.4852 272.475 33.4901C272.447 33.5006 272.512 33.4688 272.726 33.4688V25.4688C270.643 25.4688 268.573 26.1255 266.954 27.7444L272.611 33.4012ZM272.726 33.4688C272.944 33.4688 272.984 33.5016 272.915 33.4751C272.881 33.4617 272.83 33.4375 272.773 33.3987C272.716 33.3597 272.667 33.3164 272.63 33.2757L278.527 27.8699C276.926 26.1237 274.798 25.4688 272.726 25.4688V33.4688ZM272.75 33.4012C272.735 33.3866 272.713 33.3607 272.689 33.3242C272.665 33.2877 272.648 33.2522 272.637 33.2236C272.614 33.1628 272.636 33.1817 272.636 33.3328H280.636C280.636 31.296 279.967 29.3051 278.407 27.7444L272.75 33.4012ZM272.636 33.3328C272.636 33.4226 272.63 33.4795 272.625 33.509C272.62 33.5376 272.617 33.542 272.622 33.5286C272.627 33.5145 272.637 33.4922 272.653 33.467C272.668 33.4419 272.683 33.4249 272.69 33.4172L278.466 38.9524C279.988 37.3642 280.636 35.3702 280.636 33.3328H272.636ZM272.63 33.4819C272.667 33.4412 272.716 33.3979 272.773 33.359C272.83 33.3202 272.881 33.296 272.915 33.2826C272.984 33.2561 272.944 33.2888 272.726 33.2888V41.2888C274.798 41.2888 276.926 40.6339 278.527 38.8877L272.63 33.4819Z" fill="white" mask="url(#path-1-outside-1_60_1969)"/>
</svg>
